%TF.GenerationSoftware,KiCad,Pcbnew,9.0.2+dfsg-1*%
%TF.CreationDate,2026-07-20T21:17:56-07:00*%
%TF.ProjectId,D4v2Charger,44347632-4368-4617-9267-65722e6b6963,rev?*%
%TF.SameCoordinates,Original*%
%TF.FileFunction,Legend,Bot*%
%TF.FilePolarity,Positive*%
%FSLAX46Y46*%
G04 Gerber Fmt 4.6, Leading zero omitted, Abs format (unit mm)*
G04 Created by KiCad (PCBNEW 9.0.2+dfsg-1) date 2026-07-20 21:17:56*
%MOMM*%
%LPD*%
G01*
G04 APERTURE LIST*
%ADD10C,0.000000*%
%ADD11C,0.200000*%
%ADD12C,0.125000*%
G04 APERTURE END LIST*
D10*
G36*
X149620722Y-89728820D02*
G01*
X149629892Y-89729340D01*
X149638969Y-89730200D01*
X149647946Y-89731392D01*
X149656818Y-89732911D01*
X149665577Y-89734750D01*
X149674218Y-89736903D01*
X149682734Y-89739364D01*
X149691119Y-89742126D01*
X149699366Y-89745183D01*
X149707470Y-89748528D01*
X149715424Y-89752157D01*
X149723222Y-89756061D01*
X149730857Y-89760235D01*
X149738324Y-89764672D01*
X149745615Y-89769367D01*
X149752725Y-89774313D01*
X149759647Y-89779503D01*
X149766376Y-89784931D01*
X149772903Y-89790592D01*
X149779225Y-89796478D01*
X149785333Y-89802583D01*
X149791223Y-89808902D01*
X149796886Y-89815427D01*
X149802319Y-89822152D01*
X149807513Y-89829072D01*
X149812462Y-89836180D01*
X149817161Y-89843469D01*
X149821603Y-89850933D01*
X149825782Y-89858566D01*
X149829692Y-89866362D01*
X149833325Y-89874314D01*
X149930957Y-89874314D01*
X150056633Y-89874314D01*
X150625677Y-89874314D01*
X150625677Y-93816301D01*
X150500000Y-93816301D01*
X150056633Y-93816301D01*
X149930957Y-93816301D01*
X149930956Y-93816301D01*
X149833325Y-93816301D01*
X149825781Y-93832049D01*
X149817159Y-93847146D01*
X149807510Y-93861543D01*
X149796884Y-93875188D01*
X149785331Y-93888032D01*
X149772902Y-93900023D01*
X149759647Y-93911112D01*
X149745615Y-93921248D01*
X149730858Y-93930380D01*
X149715426Y-93938459D01*
X149699368Y-93945432D01*
X149682736Y-93951251D01*
X149665579Y-93955865D01*
X149647948Y-93959223D01*
X149629893Y-93961275D01*
X149611464Y-93961970D01*
X149600098Y-93961699D01*
X149588844Y-93960894D01*
X149577716Y-93959566D01*
X149566728Y-93957728D01*
X149555892Y-93955391D01*
X149545223Y-93952567D01*
X149534733Y-93949267D01*
X149524437Y-93945504D01*
X149514348Y-93941289D01*
X149504480Y-93936633D01*
X149494845Y-93931549D01*
X149485458Y-93926049D01*
X149476332Y-93920144D01*
X149467481Y-93913845D01*
X149458918Y-93907165D01*
X149450656Y-93900115D01*
X149444052Y-93907066D01*
X149437104Y-93913672D01*
X149429826Y-93919920D01*
X149422234Y-93925794D01*
X149414341Y-93931282D01*
X149406162Y-93936368D01*
X149397710Y-93941038D01*
X149389001Y-93945278D01*
X149380049Y-93949072D01*
X149370867Y-93952408D01*
X149361471Y-93955269D01*
X149351875Y-93957643D01*
X149342093Y-93959515D01*
X149332139Y-93960869D01*
X149322028Y-93961692D01*
X149311775Y-93961970D01*
X149311733Y-93961969D01*
X149303482Y-93961789D01*
X149295281Y-93961249D01*
X149287179Y-93960359D01*
X149279183Y-93959127D01*
X149271302Y-93957560D01*
X149263542Y-93955665D01*
X149255912Y-93953450D01*
X149248419Y-93950922D01*
X149241070Y-93948090D01*
X149233874Y-93944961D01*
X149226837Y-93941542D01*
X149219967Y-93937842D01*
X149213272Y-93933866D01*
X149206759Y-93929624D01*
X149200437Y-93925123D01*
X149194311Y-93920371D01*
X149188391Y-93915374D01*
X149182684Y-93910141D01*
X149177197Y-93904678D01*
X149171938Y-93898995D01*
X149166914Y-93893098D01*
X149162133Y-93886995D01*
X149157602Y-93880694D01*
X149153330Y-93874201D01*
X149149324Y-93867525D01*
X149145590Y-93860674D01*
X149142138Y-93853654D01*
X149138974Y-93846474D01*
X149136106Y-93839141D01*
X149133541Y-93831663D01*
X149131288Y-93824047D01*
X149129353Y-93816301D01*
X148555622Y-93816301D01*
X148555622Y-91908154D01*
X148217601Y-91908154D01*
X148214679Y-91919683D01*
X148211285Y-91931018D01*
X148207430Y-91942147D01*
X148203124Y-91953060D01*
X148198379Y-91963744D01*
X148193206Y-91974189D01*
X148181621Y-91994315D01*
X148168459Y-92013349D01*
X148153810Y-92031201D01*
X148137764Y-92047779D01*
X148120410Y-92062995D01*
X148101838Y-92076758D01*
X148082138Y-92088978D01*
X148061399Y-92099566D01*
X148050669Y-92104219D01*
X148039712Y-92108430D01*
X148028541Y-92112188D01*
X148017166Y-92115481D01*
X148005599Y-92118299D01*
X147993850Y-92120629D01*
X147981932Y-92122461D01*
X147969855Y-92123784D01*
X147957631Y-92124586D01*
X147945271Y-92124856D01*
X147930908Y-92124491D01*
X147916730Y-92123410D01*
X147902757Y-92121629D01*
X147889005Y-92119167D01*
X147875493Y-92116040D01*
X147862237Y-92112268D01*
X147849255Y-92107866D01*
X147836566Y-92102854D01*
X147824187Y-92097249D01*
X147812136Y-92091068D01*
X147800430Y-92084330D01*
X147789087Y-92077051D01*
X147778125Y-92069250D01*
X147767561Y-92060945D01*
X147757413Y-92052152D01*
X147747700Y-92042890D01*
X147738438Y-92033176D01*
X147729645Y-92023029D01*
X147721339Y-92012465D01*
X147713538Y-92001503D01*
X147706259Y-91990160D01*
X147699520Y-91978454D01*
X147693339Y-91966403D01*
X147687733Y-91954024D01*
X147682721Y-91941334D01*
X147678320Y-91928353D01*
X147674547Y-91915097D01*
X147671420Y-91901584D01*
X147668958Y-91887831D01*
X147667177Y-91873858D01*
X147666095Y-91859680D01*
X147665731Y-91845316D01*
X147791408Y-91845316D01*
X147791608Y-91853222D01*
X147792203Y-91861025D01*
X147793183Y-91868716D01*
X147794539Y-91876286D01*
X147796259Y-91883723D01*
X147798336Y-91891020D01*
X147800758Y-91898165D01*
X147803517Y-91905149D01*
X147806602Y-91911963D01*
X147810004Y-91918596D01*
X147813713Y-91925039D01*
X147817719Y-91931282D01*
X147822012Y-91937316D01*
X147826584Y-91943131D01*
X147831423Y-91948716D01*
X147836521Y-91954062D01*
X147841867Y-91959160D01*
X147847453Y-91964000D01*
X147853267Y-91968572D01*
X147859301Y-91972866D01*
X147865544Y-91976872D01*
X147871987Y-91980581D01*
X147878620Y-91983983D01*
X147885434Y-91987069D01*
X147892419Y-91989827D01*
X147899564Y-91992250D01*
X147906861Y-91994327D01*
X147914299Y-91996047D01*
X147921868Y-91997403D01*
X147929560Y-91998383D01*
X147937364Y-91998978D01*
X147945271Y-91999179D01*
X147953177Y-91998978D01*
X147960980Y-91998383D01*
X147968671Y-91997403D01*
X147976241Y-91996047D01*
X147983679Y-91994326D01*
X147990975Y-91992249D01*
X147998120Y-91989826D01*
X148005105Y-91987067D01*
X148011919Y-91983982D01*
X148018552Y-91980579D01*
X148024995Y-91976870D01*
X148031239Y-91972864D01*
X148037273Y-91968569D01*
X148043087Y-91963997D01*
X148048673Y-91959158D01*
X148054019Y-91954059D01*
X148059117Y-91948713D01*
X148063957Y-91943127D01*
X148068529Y-91937313D01*
X148072822Y-91931279D01*
X148076828Y-91925035D01*
X148080537Y-91918592D01*
X148083939Y-91911959D01*
X148087023Y-91905145D01*
X148089782Y-91898161D01*
X148092203Y-91891016D01*
X148094279Y-91883720D01*
X148095999Y-91876283D01*
X148097354Y-91868714D01*
X148098333Y-91861024D01*
X148098926Y-91853221D01*
X148099126Y-91845316D01*
X148098925Y-91837409D01*
X148098330Y-91829605D01*
X148097350Y-91821913D01*
X148095994Y-91814343D01*
X148094274Y-91806905D01*
X148092197Y-91799608D01*
X148089775Y-91792463D01*
X148087016Y-91785478D01*
X148083931Y-91778664D01*
X148080530Y-91772030D01*
X148076821Y-91765587D01*
X148072815Y-91759343D01*
X148068521Y-91753309D01*
X148063950Y-91747494D01*
X148059111Y-91741909D01*
X148054013Y-91736562D01*
X148048667Y-91731464D01*
X148043082Y-91726624D01*
X148037268Y-91722052D01*
X148031235Y-91717758D01*
X148024992Y-91713752D01*
X148018549Y-91710042D01*
X148011916Y-91706640D01*
X148005103Y-91703555D01*
X147998119Y-91700796D01*
X147990974Y-91698373D01*
X147983678Y-91696297D01*
X147976240Y-91694576D01*
X147968671Y-91693220D01*
X147960980Y-91692240D01*
X147953177Y-91691645D01*
X147945271Y-91691444D01*
X147937365Y-91691645D01*
X147929562Y-91692240D01*
X147921870Y-91693220D01*
X147914301Y-91694576D01*
X147906863Y-91696297D01*
X147899567Y-91698373D01*
X147892422Y-91700796D01*
X147885438Y-91703555D01*
X147878624Y-91706640D01*
X147871991Y-91710042D01*
X147865548Y-91713752D01*
X147859304Y-91717758D01*
X147853270Y-91722052D01*
X147847456Y-91726624D01*
X147841871Y-91731464D01*
X147836524Y-91736562D01*
X147831426Y-91741909D01*
X147826586Y-91747494D01*
X147822015Y-91753309D01*
X147817721Y-91759343D01*
X147813714Y-91765587D01*
X147810005Y-91772030D01*
X147806603Y-91778664D01*
X147803518Y-91785478D01*
X147800759Y-91792463D01*
X147798337Y-91799608D01*
X147796260Y-91806905D01*
X147794539Y-91814343D01*
X147793184Y-91821913D01*
X147792203Y-91829605D01*
X147791608Y-91837409D01*
X147791408Y-91845316D01*
X147665731Y-91845316D01*
X147666095Y-91830953D01*
X147667177Y-91816776D01*
X147668958Y-91802802D01*
X147671420Y-91789051D01*
X147674547Y-91775538D01*
X147678320Y-91762282D01*
X147682721Y-91749301D01*
X147687733Y-91736612D01*
X147693339Y-91724233D01*
X147699520Y-91712181D01*
X147706259Y-91700475D01*
X147713538Y-91689132D01*
X147721339Y-91678170D01*
X147729645Y-91667606D01*
X147738438Y-91657459D01*
X147747700Y-91647745D01*
X147757413Y-91638483D01*
X147767561Y-91629690D01*
X147778125Y-91621384D01*
X147789087Y-91613583D01*
X147800430Y-91606304D01*
X147812136Y-91599565D01*
X147824187Y-91593384D01*
X147836566Y-91587779D01*
X147849255Y-91582766D01*
X147862237Y-91578365D01*
X147875493Y-91574592D01*
X147889005Y-91571465D01*
X147902757Y-91569003D01*
X147916730Y-91567222D01*
X147930908Y-91566140D01*
X147945271Y-91565776D01*
X147957631Y-91566046D01*
X147969855Y-91566848D01*
X147981932Y-91568170D01*
X147993851Y-91570003D01*
X148005599Y-91572333D01*
X148017166Y-91575151D01*
X148028542Y-91578444D01*
X148039713Y-91582202D01*
X148050670Y-91586413D01*
X148061401Y-91591066D01*
X148071895Y-91596150D01*
X148082140Y-91601653D01*
X148092126Y-91607565D01*
X148101841Y-91613874D01*
X148111274Y-91620568D01*
X148120413Y-91627637D01*
X148129248Y-91635069D01*
X148137767Y-91642853D01*
X148145960Y-91650977D01*
X148153814Y-91659431D01*
X148161319Y-91668203D01*
X148168463Y-91677283D01*
X148175235Y-91686657D01*
X148181624Y-91696316D01*
X148187619Y-91706249D01*
X148193209Y-91716443D01*
X148198381Y-91726888D01*
X148203126Y-91737572D01*
X148207432Y-91748484D01*
X148211287Y-91759614D01*
X148214680Y-91770948D01*
X148217601Y-91782477D01*
X148555622Y-91782477D01*
X148555622Y-90000017D01*
X148681249Y-90000017D01*
X148681249Y-90587399D01*
X148974622Y-90880763D01*
X148885755Y-90969630D01*
X148681258Y-90765132D01*
X148681258Y-91304732D01*
X148974630Y-91598096D01*
X148885764Y-91686963D01*
X148681266Y-91482465D01*
X148681266Y-92022066D01*
X148974639Y-92315430D01*
X148885772Y-92404305D01*
X148681274Y-92199815D01*
X148681274Y-92739407D01*
X148974647Y-93032772D01*
X148885780Y-93121639D01*
X148681282Y-92917149D01*
X148681282Y-93690624D01*
X149124657Y-93690624D01*
X149124657Y-93261362D01*
X149124657Y-93255236D01*
X149250334Y-93255236D01*
X149250334Y-93261362D01*
X149250334Y-93774868D01*
X149250414Y-93778025D01*
X149250651Y-93781141D01*
X149251043Y-93784212D01*
X149251584Y-93787234D01*
X149252271Y-93790204D01*
X149253100Y-93793117D01*
X149254067Y-93795970D01*
X149255168Y-93798759D01*
X149256400Y-93801480D01*
X149257758Y-93804128D01*
X149259239Y-93806701D01*
X149260838Y-93809194D01*
X149262552Y-93811603D01*
X149264376Y-93813925D01*
X149266308Y-93816155D01*
X149268343Y-93818290D01*
X149270477Y-93820325D01*
X149272706Y-93822257D01*
X149275026Y-93824083D01*
X149277434Y-93825797D01*
X149279926Y-93827396D01*
X149282497Y-93828877D01*
X149285144Y-93830234D01*
X149287863Y-93831466D01*
X149290650Y-93832567D01*
X149293500Y-93833533D01*
X149296411Y-93834361D01*
X149299379Y-93835048D01*
X149302399Y-93835588D01*
X149305467Y-93835978D01*
X149308580Y-93836214D01*
X149311733Y-93836293D01*
X149314891Y-93836213D01*
X149318007Y-93835975D01*
X149321079Y-93835583D01*
X149324102Y-93835042D01*
X149327072Y-93834355D01*
X149329986Y-93833525D01*
X149332840Y-93832558D01*
X149335629Y-93831456D01*
X149338350Y-93830224D01*
X149341000Y-93828865D01*
X149343573Y-93827384D01*
X149346066Y-93825784D01*
X149348476Y-93824069D01*
X149350798Y-93822244D01*
X149353029Y-93820311D01*
X149355164Y-93818275D01*
X149357200Y-93816140D01*
X149359133Y-93813910D01*
X149360959Y-93811588D01*
X149362674Y-93809178D01*
X149364274Y-93806685D01*
X149365755Y-93804112D01*
X149367114Y-93801464D01*
X149368346Y-93798743D01*
X149369448Y-93795954D01*
X149370415Y-93793101D01*
X149371245Y-93790187D01*
X149371932Y-93787217D01*
X149372473Y-93784195D01*
X149372865Y-93781124D01*
X149373103Y-93778008D01*
X149373183Y-93774852D01*
X149373690Y-93742986D01*
X149375162Y-93712956D01*
X149377526Y-93684655D01*
X149380711Y-93657978D01*
X149384644Y-93632821D01*
X149389252Y-93609077D01*
X149394462Y-93586641D01*
X149400203Y-93565407D01*
X149406402Y-93545272D01*
X149412986Y-93526128D01*
X149419882Y-93507871D01*
X149427019Y-93490395D01*
X149441723Y-93457366D01*
X149456518Y-93426198D01*
X149470046Y-93397735D01*
X149483003Y-93368743D01*
X149489149Y-93353760D01*
X149495011Y-93338299D01*
X149500539Y-93322244D01*
X149505687Y-93305479D01*
X149510408Y-93287889D01*
X149514653Y-93269358D01*
X149518376Y-93249772D01*
X149521528Y-93229013D01*
X149524063Y-93206968D01*
X149525932Y-93183521D01*
X149527088Y-93158556D01*
X149527484Y-93131957D01*
X149527088Y-93105356D01*
X149525932Y-93080389D01*
X149524062Y-93056939D01*
X149521527Y-93034892D01*
X149518374Y-93014132D01*
X149514651Y-92994543D01*
X149510405Y-92976011D01*
X149505684Y-92958418D01*
X149500536Y-92941651D01*
X149495007Y-92925593D01*
X149489146Y-92910130D01*
X149483000Y-92895145D01*
X149470043Y-92866149D01*
X149456518Y-92837683D01*
X149441721Y-92806517D01*
X149427016Y-92773491D01*
X149412982Y-92737761D01*
X149406398Y-92718619D01*
X149400200Y-92698484D01*
X149394460Y-92677252D01*
X149389250Y-92654817D01*
X149384642Y-92631074D01*
X149380710Y-92605917D01*
X149377526Y-92579241D01*
X149375161Y-92550941D01*
X149373690Y-92520911D01*
X149373183Y-92489045D01*
X149373690Y-92457180D01*
X149375161Y-92427149D01*
X149377526Y-92398848D01*
X149380710Y-92372171D01*
X149384642Y-92347012D01*
X149389250Y-92323268D01*
X149394460Y-92300831D01*
X149400200Y-92279597D01*
X149406398Y-92259460D01*
X149412982Y-92240316D01*
X149419879Y-92222058D01*
X149427016Y-92204582D01*
X149441721Y-92171552D01*
X149456518Y-92140383D01*
X149463316Y-92126183D01*
X149470020Y-92111968D01*
X149476582Y-92097622D01*
X149479794Y-92090362D01*
X149482952Y-92083026D01*
X149491935Y-92060736D01*
X149500243Y-92037276D01*
X149507724Y-92012276D01*
X149511107Y-91999084D01*
X149514226Y-91985367D01*
X149517063Y-91971082D01*
X149519598Y-91956180D01*
X149521813Y-91940616D01*
X149523688Y-91924345D01*
X149525206Y-91907318D01*
X149526346Y-91889492D01*
X149527089Y-91870818D01*
X149527418Y-91851252D01*
X149527432Y-91850164D01*
X149527454Y-91849093D01*
X149527475Y-91848021D01*
X149527484Y-91846928D01*
X149527467Y-91845299D01*
X149527484Y-91844282D01*
X149527256Y-91824194D01*
X149526593Y-91805040D01*
X149525517Y-91786770D01*
X149524047Y-91769337D01*
X149522203Y-91752691D01*
X149520006Y-91736784D01*
X149517474Y-91721567D01*
X149514629Y-91706992D01*
X149511491Y-91693010D01*
X149508078Y-91679573D01*
X149504413Y-91666631D01*
X149500514Y-91654136D01*
X149496401Y-91642039D01*
X149492096Y-91630292D01*
X149482985Y-91607654D01*
X149479824Y-91600308D01*
X149476608Y-91593039D01*
X149470037Y-91578671D01*
X149463323Y-91564435D01*
X149456518Y-91550215D01*
X149441721Y-91519049D01*
X149427016Y-91486022D01*
X149412982Y-91450290D01*
X149406398Y-91431147D01*
X149400200Y-91411011D01*
X149394460Y-91389778D01*
X149389250Y-91367342D01*
X149384642Y-91343597D01*
X149380710Y-91318439D01*
X149377526Y-91291761D01*
X149375161Y-91263459D01*
X149373690Y-91233428D01*
X149373183Y-91201578D01*
X149498901Y-91201578D01*
X149499297Y-91228178D01*
X149500454Y-91253145D01*
X149502323Y-91276595D01*
X149504858Y-91298642D01*
X149508011Y-91319402D01*
X149511734Y-91338991D01*
X149515980Y-91357524D01*
X149520701Y-91375117D01*
X149525850Y-91391885D01*
X149531378Y-91407943D01*
X149537239Y-91423407D01*
X149543385Y-91438393D01*
X149556342Y-91467391D01*
X149569867Y-91495860D01*
X149584664Y-91527025D01*
X149599370Y-91560053D01*
X149613403Y-91595784D01*
X149619987Y-91614928D01*
X149626185Y-91635063D01*
X149631925Y-91656297D01*
X149637136Y-91678733D01*
X149641743Y-91702477D01*
X149645675Y-91727636D01*
X149648860Y-91754313D01*
X149651224Y-91782615D01*
X149652696Y-91812647D01*
X149653202Y-91844514D01*
X149653202Y-91846118D01*
X149652696Y-91877983D01*
X149651224Y-91908014D01*
X149648860Y-91936315D01*
X149645675Y-91962992D01*
X149641743Y-91988150D01*
X149637136Y-92011895D01*
X149631925Y-92034331D01*
X149626185Y-92055565D01*
X149619987Y-92075701D01*
X149613403Y-92094845D01*
X149606507Y-92113102D01*
X149599370Y-92130578D01*
X149584664Y-92163606D01*
X149569867Y-92194772D01*
X149556339Y-92223241D01*
X149543382Y-92252238D01*
X149537236Y-92267223D01*
X149531375Y-92282687D01*
X149525846Y-92298745D01*
X149520698Y-92315512D01*
X149515977Y-92333105D01*
X149511732Y-92351639D01*
X149508009Y-92371228D01*
X149504857Y-92391990D01*
X149502323Y-92414038D01*
X149500453Y-92437489D01*
X149499297Y-92462459D01*
X149498901Y-92489062D01*
X149499001Y-92502573D01*
X149499296Y-92515661D01*
X149499782Y-92528341D01*
X149500451Y-92540628D01*
X149501299Y-92552535D01*
X149502319Y-92564077D01*
X149503506Y-92575268D01*
X149504854Y-92586123D01*
X149507164Y-92601807D01*
X149509801Y-92616815D01*
X149512745Y-92631197D01*
X149515976Y-92645000D01*
X149519474Y-92658275D01*
X149523220Y-92671069D01*
X149527193Y-92683432D01*
X149531372Y-92695411D01*
X149535739Y-92707056D01*
X149540272Y-92718416D01*
X149549760Y-92740475D01*
X149559676Y-92761976D01*
X149569859Y-92783311D01*
X149589289Y-92824565D01*
X149598909Y-92846444D01*
X149608247Y-92869476D01*
X149617140Y-92893898D01*
X149621368Y-92906706D01*
X149625424Y-92919950D01*
X149629286Y-92933662D01*
X149632935Y-92947870D01*
X149636350Y-92962605D01*
X149639510Y-92977896D01*
X149641195Y-92986895D01*
X149642785Y-92996089D01*
X149644278Y-93005486D01*
X149645670Y-93015094D01*
X149647361Y-93028235D01*
X149648856Y-93041770D01*
X149650145Y-93055710D01*
X149651218Y-93070070D01*
X149652067Y-93084865D01*
X149652687Y-93100103D01*
X149653066Y-93115798D01*
X149653194Y-93131965D01*
X149653157Y-93140699D01*
X149653045Y-93149296D01*
X149652063Y-93179153D01*
X149650214Y-93207348D01*
X149647564Y-93233975D01*
X149644177Y-93259130D01*
X149640120Y-93282906D01*
X149635458Y-93305400D01*
X149630256Y-93326706D01*
X149624580Y-93346919D01*
X149618494Y-93366135D01*
X149612065Y-93384447D01*
X149605358Y-93401951D01*
X149598437Y-93418743D01*
X149584219Y-93450566D01*
X149569933Y-93480677D01*
X149557161Y-93507556D01*
X149544883Y-93534843D01*
X149533416Y-93563314D01*
X149528086Y-93578236D01*
X149523077Y-93593744D01*
X149518430Y-93609935D01*
X149514183Y-93626907D01*
X149510377Y-93644755D01*
X149507051Y-93663576D01*
X149504245Y-93683468D01*
X149501997Y-93704528D01*
X149500349Y-93726851D01*
X149499339Y-93750535D01*
X149500703Y-93755186D01*
X149502253Y-93759749D01*
X149503984Y-93764220D01*
X149505892Y-93768594D01*
X149510219Y-93777041D01*
X149515195Y-93785057D01*
X149520781Y-93792611D01*
X149526938Y-93799673D01*
X149533629Y-93806210D01*
X149540814Y-93812192D01*
X149548454Y-93817588D01*
X149556512Y-93822365D01*
X149564949Y-93826493D01*
X149573726Y-93829941D01*
X149582805Y-93832677D01*
X149587445Y-93833768D01*
X149592146Y-93834670D01*
X149596904Y-93835378D01*
X149601713Y-93835888D01*
X149606568Y-93836197D01*
X149611464Y-93836301D01*
X149617434Y-93836150D01*
X149623326Y-93835701D01*
X149629134Y-93834960D01*
X149634850Y-93833937D01*
X149640466Y-93832638D01*
X149645976Y-93831070D01*
X149651372Y-93829241D01*
X149656646Y-93827157D01*
X149661791Y-93824828D01*
X149666800Y-93822259D01*
X149671666Y-93819458D01*
X149676381Y-93816433D01*
X149680938Y-93813191D01*
X149685329Y-93809739D01*
X149689547Y-93806085D01*
X149693584Y-93802235D01*
X149697434Y-93798198D01*
X149701089Y-93793981D01*
X149704542Y-93789590D01*
X149707785Y-93785034D01*
X149710810Y-93780320D01*
X149713612Y-93775454D01*
X149716181Y-93770445D01*
X149718511Y-93765300D01*
X149720595Y-93760026D01*
X149722424Y-93754630D01*
X149723993Y-93749121D01*
X149725292Y-93743504D01*
X149726316Y-93737788D01*
X149727057Y-93731980D01*
X149727506Y-93726087D01*
X149727658Y-93720117D01*
X149727658Y-93690624D01*
X149853326Y-93690624D01*
X149930956Y-93690624D01*
X149930956Y-93506631D01*
X150240212Y-92622139D01*
X149930956Y-91737672D01*
X149930956Y-91716340D01*
X150056625Y-91716340D01*
X150373347Y-92622147D01*
X150056625Y-93527972D01*
X150056625Y-93690624D01*
X150500000Y-93690624D01*
X150500000Y-90000000D01*
X150056625Y-90000000D01*
X150056625Y-91716340D01*
X149930956Y-91716340D01*
X149930956Y-89999983D01*
X149853326Y-89999983D01*
X149853326Y-93690624D01*
X149727658Y-93690624D01*
X149727658Y-89970499D01*
X149727506Y-89964529D01*
X149727057Y-89958637D01*
X149726316Y-89952829D01*
X149725292Y-89947114D01*
X149723993Y-89941498D01*
X149722424Y-89935989D01*
X149720595Y-89930594D01*
X149718511Y-89925320D01*
X149716181Y-89920175D01*
X149713612Y-89915167D01*
X149710810Y-89910302D01*
X149707785Y-89905588D01*
X149704542Y-89901032D01*
X149701089Y-89896642D01*
X149697434Y-89892425D01*
X149693584Y-89888388D01*
X149689546Y-89884539D01*
X149685328Y-89880885D01*
X149680937Y-89877433D01*
X149676381Y-89874192D01*
X149671666Y-89871167D01*
X149666800Y-89868367D01*
X149661791Y-89865798D01*
X149656646Y-89863469D01*
X149651371Y-89861387D01*
X149645976Y-89859558D01*
X149640466Y-89857991D01*
X149634850Y-89856692D01*
X149629134Y-89855669D01*
X149623326Y-89854930D01*
X149617434Y-89854481D01*
X149611464Y-89854330D01*
X149606568Y-89854434D01*
X149601712Y-89854743D01*
X149596904Y-89855254D01*
X149592146Y-89855961D01*
X149587445Y-89856863D01*
X149582804Y-89857954D01*
X149578229Y-89859230D01*
X149573725Y-89860689D01*
X149569296Y-89862325D01*
X149564948Y-89864135D01*
X149560684Y-89866116D01*
X149556510Y-89868262D01*
X149552431Y-89870571D01*
X149548452Y-89873039D01*
X149544576Y-89875661D01*
X149540810Y-89878433D01*
X149537158Y-89881352D01*
X149533625Y-89884414D01*
X149530216Y-89887615D01*
X149526934Y-89890951D01*
X149523787Y-89894418D01*
X149520777Y-89898013D01*
X149517910Y-89901730D01*
X149515191Y-89905568D01*
X149512625Y-89909520D01*
X149510216Y-89913584D01*
X149507969Y-89917757D01*
X149505890Y-89922032D01*
X149503982Y-89926408D01*
X149502251Y-89930880D01*
X149500702Y-89935444D01*
X149499339Y-89940096D01*
X149500349Y-89963782D01*
X149501998Y-89986107D01*
X149504245Y-90007168D01*
X149507052Y-90027061D01*
X149510379Y-90045884D01*
X149514185Y-90063734D01*
X149518432Y-90080706D01*
X149523080Y-90096899D01*
X149528089Y-90112408D01*
X149533420Y-90127331D01*
X149539032Y-90141764D01*
X149544886Y-90155804D01*
X149557163Y-90183092D01*
X149569933Y-90209971D01*
X149584193Y-90240030D01*
X149598386Y-90271796D01*
X149611991Y-90306023D01*
X149618411Y-90324295D01*
X149624490Y-90343466D01*
X149630162Y-90363630D01*
X149635362Y-90384882D01*
X149640026Y-90407316D01*
X149644088Y-90431025D01*
X149647483Y-90456106D01*
X149650147Y-90482652D01*
X149652015Y-90510758D01*
X149653020Y-90540517D01*
X149653155Y-90549525D01*
X149653202Y-90558674D01*
X149652696Y-90590538D01*
X149651224Y-90620568D01*
X149648860Y-90648867D01*
X149645675Y-90675543D01*
X149641743Y-90700700D01*
X149637136Y-90724443D01*
X149631925Y-90746878D01*
X149626185Y-90768110D01*
X149619987Y-90788245D01*
X149613403Y-90807388D01*
X149606507Y-90825644D01*
X149599370Y-90843119D01*
X149584664Y-90876146D01*
X149569867Y-90907312D01*
X149556339Y-90935778D01*
X149543382Y-90964773D01*
X149537236Y-90979757D01*
X149531375Y-90995220D01*
X149525846Y-91011277D01*
X149520698Y-91028043D01*
X149515977Y-91045635D01*
X149511732Y-91064167D01*
X149508009Y-91083755D01*
X149504857Y-91104515D01*
X149502323Y-91126561D01*
X149500453Y-91150010D01*
X149499297Y-91174977D01*
X149498901Y-91201578D01*
X149373183Y-91201578D01*
X149373183Y-91201561D01*
X149373690Y-91169697D01*
X149375161Y-91139668D01*
X149377526Y-91111368D01*
X149380710Y-91084693D01*
X149384642Y-91059536D01*
X149389250Y-91035793D01*
X149394460Y-91013357D01*
X149400200Y-90992125D01*
X149406398Y-90971990D01*
X149412982Y-90952847D01*
X149419879Y-90934591D01*
X149427016Y-90917116D01*
X149441721Y-90884089D01*
X149456518Y-90852923D01*
X149470046Y-90824457D01*
X149483003Y-90795462D01*
X149489149Y-90780478D01*
X149495011Y-90765015D01*
X149500539Y-90748958D01*
X149505687Y-90732192D01*
X149510408Y-90714600D01*
X149514653Y-90696068D01*
X149518376Y-90676480D01*
X149521528Y-90655721D01*
X149524063Y-90633674D01*
X149525932Y-90610225D01*
X149527088Y-90585258D01*
X149527484Y-90558658D01*
X149527088Y-90532060D01*
X149525932Y-90507096D01*
X149524062Y-90483649D01*
X149521527Y-90461605D01*
X149518374Y-90440847D01*
X149514651Y-90421260D01*
X149510405Y-90402729D01*
X149505684Y-90385139D01*
X149500536Y-90368374D01*
X149495007Y-90352318D01*
X149489146Y-90336856D01*
X149483000Y-90321873D01*
X149470043Y-90292880D01*
X149456518Y-90264417D01*
X149441723Y-90233249D01*
X149427019Y-90200221D01*
X149412986Y-90164489D01*
X149406402Y-90145346D01*
X149400203Y-90125211D01*
X149394462Y-90103979D01*
X149389252Y-90081544D01*
X149384644Y-90057800D01*
X149380711Y-90032643D01*
X149377526Y-90005967D01*
X149375162Y-89977667D01*
X149373690Y-89947637D01*
X149373183Y-89915771D01*
X149373103Y-89912614D01*
X149372865Y-89909497D01*
X149372474Y-89906426D01*
X149371932Y-89903402D01*
X149371245Y-89900432D01*
X149370416Y-89897518D01*
X149369449Y-89894664D01*
X149368347Y-89891874D01*
X149367115Y-89889152D01*
X149365757Y-89886503D01*
X149364276Y-89883929D01*
X149362676Y-89881435D01*
X149360961Y-89879025D01*
X149359136Y-89876702D01*
X149357203Y-89874471D01*
X149355167Y-89872335D01*
X149353032Y-89870299D01*
X149350802Y-89868365D01*
X149348480Y-89866539D01*
X149346070Y-89864823D01*
X149343577Y-89863223D01*
X149341003Y-89861741D01*
X149338354Y-89860381D01*
X149335633Y-89859148D01*
X149332843Y-89858046D01*
X149329990Y-89857077D01*
X149327075Y-89856247D01*
X149324105Y-89855559D01*
X149321081Y-89855017D01*
X149318009Y-89854625D01*
X149314892Y-89854386D01*
X149311734Y-89854306D01*
X149308577Y-89854386D01*
X149305461Y-89854623D01*
X149302390Y-89855015D01*
X149299368Y-89855557D01*
X149296399Y-89856244D01*
X149293485Y-89857074D01*
X149290632Y-89858041D01*
X149287844Y-89859144D01*
X149285123Y-89860376D01*
X149282475Y-89861735D01*
X149279902Y-89863217D01*
X149277410Y-89864817D01*
X149275000Y-89866533D01*
X149272679Y-89868359D01*
X149270449Y-89870292D01*
X149268314Y-89872329D01*
X149266279Y-89874465D01*
X149264346Y-89876696D01*
X149262521Y-89879019D01*
X149260807Y-89881429D01*
X149259207Y-89883923D01*
X149257726Y-89886497D01*
X149256368Y-89889147D01*
X149255136Y-89891869D01*
X149254035Y-89894659D01*
X149253067Y-89897514D01*
X149252238Y-89900428D01*
X149251551Y-89903400D01*
X149251010Y-89906423D01*
X149250619Y-89909496D01*
X149250381Y-89912613D01*
X149250301Y-89915771D01*
X149250301Y-93069276D01*
X149250301Y-93090657D01*
X149124624Y-93090657D01*
X149124624Y-93069276D01*
X149124624Y-90000017D01*
X148681249Y-90000017D01*
X148555622Y-90000017D01*
X148555622Y-89874315D01*
X149129361Y-89874315D01*
X149131296Y-89866568D01*
X149133549Y-89858952D01*
X149136114Y-89851474D01*
X149138982Y-89844141D01*
X149142146Y-89836961D01*
X149145598Y-89829941D01*
X149153338Y-89816414D01*
X149162141Y-89803620D01*
X149171945Y-89791620D01*
X149182692Y-89780475D01*
X149194319Y-89770245D01*
X149206766Y-89760991D01*
X149219973Y-89752774D01*
X149226843Y-89749073D01*
X149233879Y-89745654D01*
X149241075Y-89742525D01*
X149248424Y-89739693D01*
X149255917Y-89737165D01*
X149263546Y-89734950D01*
X149271305Y-89733055D01*
X149279186Y-89731488D01*
X149287181Y-89730256D01*
X149295282Y-89729366D01*
X149303483Y-89728827D01*
X149311775Y-89728645D01*
X149322030Y-89728923D01*
X149332142Y-89729746D01*
X149342097Y-89731100D01*
X149351880Y-89732972D01*
X149361476Y-89735346D01*
X149370873Y-89738207D01*
X149380055Y-89741543D01*
X149389007Y-89745337D01*
X149397716Y-89749577D01*
X149406167Y-89754247D01*
X149414346Y-89759333D01*
X149422239Y-89764821D01*
X149429830Y-89770695D01*
X149437107Y-89776943D01*
X149444053Y-89783549D01*
X149450656Y-89790499D01*
X149458918Y-89783448D01*
X149467481Y-89776767D01*
X149476332Y-89770468D01*
X149485458Y-89764561D01*
X149494845Y-89759060D01*
X149504480Y-89753976D01*
X149514348Y-89749320D01*
X149524437Y-89745105D01*
X149534733Y-89741342D01*
X149545223Y-89738043D01*
X149555892Y-89735219D01*
X149566728Y-89732882D01*
X149577716Y-89731045D01*
X149588844Y-89729719D01*
X149600098Y-89728915D01*
X149611464Y-89728645D01*
X149620722Y-89728820D01*
G37*
D11*
X148700552Y-94774435D02*
X149367219Y-95012530D01*
X149367219Y-95012530D02*
X148700552Y-95250625D01*
X149367219Y-96155387D02*
X149367219Y-95583959D01*
X149367219Y-95869673D02*
X148367219Y-95869673D01*
X148367219Y-95869673D02*
X148510076Y-95774435D01*
X148510076Y-95774435D02*
X148605314Y-95679197D01*
X148605314Y-95679197D02*
X148652933Y-95583959D01*
X149271980Y-96583959D02*
X149319600Y-96631578D01*
X149319600Y-96631578D02*
X149367219Y-96583959D01*
X149367219Y-96583959D02*
X149319600Y-96536340D01*
X149319600Y-96536340D02*
X149271980Y-96583959D01*
X149271980Y-96583959D02*
X149367219Y-96583959D01*
X148367219Y-97250625D02*
X148367219Y-97345863D01*
X148367219Y-97345863D02*
X148414838Y-97441101D01*
X148414838Y-97441101D02*
X148462457Y-97488720D01*
X148462457Y-97488720D02*
X148557695Y-97536339D01*
X148557695Y-97536339D02*
X148748171Y-97583958D01*
X148748171Y-97583958D02*
X148986266Y-97583958D01*
X148986266Y-97583958D02*
X149176742Y-97536339D01*
X149176742Y-97536339D02*
X149271980Y-97488720D01*
X149271980Y-97488720D02*
X149319600Y-97441101D01*
X149319600Y-97441101D02*
X149367219Y-97345863D01*
X149367219Y-97345863D02*
X149367219Y-97250625D01*
X149367219Y-97250625D02*
X149319600Y-97155387D01*
X149319600Y-97155387D02*
X149271980Y-97107768D01*
X149271980Y-97107768D02*
X149176742Y-97060149D01*
X149176742Y-97060149D02*
X148986266Y-97012530D01*
X148986266Y-97012530D02*
X148748171Y-97012530D01*
X148748171Y-97012530D02*
X148557695Y-97060149D01*
X148557695Y-97060149D02*
X148462457Y-97107768D01*
X148462457Y-97107768D02*
X148414838Y-97155387D01*
X148414838Y-97155387D02*
X148367219Y-97250625D01*
D12*
X147432309Y-86201283D02*
X146932309Y-86201283D01*
X146932309Y-86201283D02*
X146932309Y-86320331D01*
X146932309Y-86320331D02*
X146956119Y-86391759D01*
X146956119Y-86391759D02*
X147003738Y-86439378D01*
X147003738Y-86439378D02*
X147051357Y-86463188D01*
X147051357Y-86463188D02*
X147146595Y-86486997D01*
X147146595Y-86486997D02*
X147218023Y-86486997D01*
X147218023Y-86486997D02*
X147313261Y-86463188D01*
X147313261Y-86463188D02*
X147360880Y-86439378D01*
X147360880Y-86439378D02*
X147408500Y-86391759D01*
X147408500Y-86391759D02*
X147432309Y-86320331D01*
X147432309Y-86320331D02*
X147432309Y-86201283D01*
X147098976Y-86915569D02*
X147432309Y-86915569D01*
X146908500Y-86796521D02*
X147265642Y-86677474D01*
X147265642Y-86677474D02*
X147265642Y-86986997D01*
X146932309Y-87106045D02*
X147432309Y-87272711D01*
X147432309Y-87272711D02*
X146932309Y-87439378D01*
X146979928Y-87582235D02*
X146956119Y-87606044D01*
X146956119Y-87606044D02*
X146932309Y-87653663D01*
X146932309Y-87653663D02*
X146932309Y-87772711D01*
X146932309Y-87772711D02*
X146956119Y-87820330D01*
X146956119Y-87820330D02*
X146979928Y-87844139D01*
X146979928Y-87844139D02*
X147027547Y-87867949D01*
X147027547Y-87867949D02*
X147075166Y-87867949D01*
X147075166Y-87867949D02*
X147146595Y-87844139D01*
X147146595Y-87844139D02*
X147432309Y-87558425D01*
X147432309Y-87558425D02*
X147432309Y-87867949D01*
X147384690Y-88748900D02*
X147408500Y-88725091D01*
X147408500Y-88725091D02*
X147432309Y-88653662D01*
X147432309Y-88653662D02*
X147432309Y-88606043D01*
X147432309Y-88606043D02*
X147408500Y-88534615D01*
X147408500Y-88534615D02*
X147360880Y-88486996D01*
X147360880Y-88486996D02*
X147313261Y-88463186D01*
X147313261Y-88463186D02*
X147218023Y-88439377D01*
X147218023Y-88439377D02*
X147146595Y-88439377D01*
X147146595Y-88439377D02*
X147051357Y-88463186D01*
X147051357Y-88463186D02*
X147003738Y-88486996D01*
X147003738Y-88486996D02*
X146956119Y-88534615D01*
X146956119Y-88534615D02*
X146932309Y-88606043D01*
X146932309Y-88606043D02*
X146932309Y-88653662D01*
X146932309Y-88653662D02*
X146956119Y-88725091D01*
X146956119Y-88725091D02*
X146979928Y-88748900D01*
X147432309Y-88963186D02*
X146932309Y-88963186D01*
X147432309Y-89177472D02*
X147170404Y-89177472D01*
X147170404Y-89177472D02*
X147122785Y-89153662D01*
X147122785Y-89153662D02*
X147098976Y-89106043D01*
X147098976Y-89106043D02*
X147098976Y-89034615D01*
X147098976Y-89034615D02*
X147122785Y-88986996D01*
X147122785Y-88986996D02*
X147146595Y-88963186D01*
X147432309Y-89629853D02*
X147170404Y-89629853D01*
X147170404Y-89629853D02*
X147122785Y-89606043D01*
X147122785Y-89606043D02*
X147098976Y-89558424D01*
X147098976Y-89558424D02*
X147098976Y-89463186D01*
X147098976Y-89463186D02*
X147122785Y-89415567D01*
X147408500Y-89629853D02*
X147432309Y-89582234D01*
X147432309Y-89582234D02*
X147432309Y-89463186D01*
X147432309Y-89463186D02*
X147408500Y-89415567D01*
X147408500Y-89415567D02*
X147360880Y-89391758D01*
X147360880Y-89391758D02*
X147313261Y-89391758D01*
X147313261Y-89391758D02*
X147265642Y-89415567D01*
X147265642Y-89415567D02*
X147241833Y-89463186D01*
X147241833Y-89463186D02*
X147241833Y-89582234D01*
X147241833Y-89582234D02*
X147218023Y-89629853D01*
X147432309Y-89867948D02*
X147098976Y-89867948D01*
X147194214Y-89867948D02*
X147146595Y-89891758D01*
X147146595Y-89891758D02*
X147122785Y-89915567D01*
X147122785Y-89915567D02*
X147098976Y-89963186D01*
X147098976Y-89963186D02*
X147098976Y-90010805D01*
X147098976Y-90391758D02*
X147503738Y-90391758D01*
X147503738Y-90391758D02*
X147551357Y-90367948D01*
X147551357Y-90367948D02*
X147575166Y-90344139D01*
X147575166Y-90344139D02*
X147598976Y-90296520D01*
X147598976Y-90296520D02*
X147598976Y-90225091D01*
X147598976Y-90225091D02*
X147575166Y-90177472D01*
X147408500Y-90391758D02*
X147432309Y-90344139D01*
X147432309Y-90344139D02*
X147432309Y-90248901D01*
X147432309Y-90248901D02*
X147408500Y-90201282D01*
X147408500Y-90201282D02*
X147384690Y-90177472D01*
X147384690Y-90177472D02*
X147337071Y-90153663D01*
X147337071Y-90153663D02*
X147194214Y-90153663D01*
X147194214Y-90153663D02*
X147146595Y-90177472D01*
X147146595Y-90177472D02*
X147122785Y-90201282D01*
X147122785Y-90201282D02*
X147098976Y-90248901D01*
X147098976Y-90248901D02*
X147098976Y-90344139D01*
X147098976Y-90344139D02*
X147122785Y-90391758D01*
X147408500Y-90820329D02*
X147432309Y-90772710D01*
X147432309Y-90772710D02*
X147432309Y-90677472D01*
X147432309Y-90677472D02*
X147408500Y-90629853D01*
X147408500Y-90629853D02*
X147360880Y-90606044D01*
X147360880Y-90606044D02*
X147170404Y-90606044D01*
X147170404Y-90606044D02*
X147122785Y-90629853D01*
X147122785Y-90629853D02*
X147098976Y-90677472D01*
X147098976Y-90677472D02*
X147098976Y-90772710D01*
X147098976Y-90772710D02*
X147122785Y-90820329D01*
X147122785Y-90820329D02*
X147170404Y-90844139D01*
X147170404Y-90844139D02*
X147218023Y-90844139D01*
X147218023Y-90844139D02*
X147265642Y-90606044D01*
X147432309Y-91058424D02*
X147098976Y-91058424D01*
X147194214Y-91058424D02*
X147146595Y-91082234D01*
X147146595Y-91082234D02*
X147122785Y-91106043D01*
X147122785Y-91106043D02*
X147098976Y-91153662D01*
X147098976Y-91153662D02*
X147098976Y-91201281D01*
X147408500Y-91725091D02*
X147432309Y-91796519D01*
X147432309Y-91796519D02*
X147432309Y-91915567D01*
X147432309Y-91915567D02*
X147408500Y-91963186D01*
X147408500Y-91963186D02*
X147384690Y-91986995D01*
X147384690Y-91986995D02*
X147337071Y-92010805D01*
X147337071Y-92010805D02*
X147289452Y-92010805D01*
X147289452Y-92010805D02*
X147241833Y-91986995D01*
X147241833Y-91986995D02*
X147218023Y-91963186D01*
X147218023Y-91963186D02*
X147194214Y-91915567D01*
X147194214Y-91915567D02*
X147170404Y-91820329D01*
X147170404Y-91820329D02*
X147146595Y-91772710D01*
X147146595Y-91772710D02*
X147122785Y-91748900D01*
X147122785Y-91748900D02*
X147075166Y-91725091D01*
X147075166Y-91725091D02*
X147027547Y-91725091D01*
X147027547Y-91725091D02*
X146979928Y-91748900D01*
X146979928Y-91748900D02*
X146956119Y-91772710D01*
X146956119Y-91772710D02*
X146932309Y-91820329D01*
X146932309Y-91820329D02*
X146932309Y-91939376D01*
X146932309Y-91939376D02*
X146956119Y-92010805D01*
X147432309Y-92439376D02*
X147170404Y-92439376D01*
X147170404Y-92439376D02*
X147122785Y-92415566D01*
X147122785Y-92415566D02*
X147098976Y-92367947D01*
X147098976Y-92367947D02*
X147098976Y-92272709D01*
X147098976Y-92272709D02*
X147122785Y-92225090D01*
X147408500Y-92439376D02*
X147432309Y-92391757D01*
X147432309Y-92391757D02*
X147432309Y-92272709D01*
X147432309Y-92272709D02*
X147408500Y-92225090D01*
X147408500Y-92225090D02*
X147360880Y-92201281D01*
X147360880Y-92201281D02*
X147313261Y-92201281D01*
X147313261Y-92201281D02*
X147265642Y-92225090D01*
X147265642Y-92225090D02*
X147241833Y-92272709D01*
X147241833Y-92272709D02*
X147241833Y-92391757D01*
X147241833Y-92391757D02*
X147218023Y-92439376D01*
X147098976Y-92677471D02*
X147432309Y-92677471D01*
X147146595Y-92677471D02*
X147122785Y-92701281D01*
X147122785Y-92701281D02*
X147098976Y-92748900D01*
X147098976Y-92748900D02*
X147098976Y-92820328D01*
X147098976Y-92820328D02*
X147122785Y-92867947D01*
X147122785Y-92867947D02*
X147170404Y-92891757D01*
X147170404Y-92891757D02*
X147432309Y-92891757D01*
X147432309Y-93344138D02*
X146932309Y-93344138D01*
X147408500Y-93344138D02*
X147432309Y-93296519D01*
X147432309Y-93296519D02*
X147432309Y-93201281D01*
X147432309Y-93201281D02*
X147408500Y-93153662D01*
X147408500Y-93153662D02*
X147384690Y-93129852D01*
X147384690Y-93129852D02*
X147337071Y-93106043D01*
X147337071Y-93106043D02*
X147194214Y-93106043D01*
X147194214Y-93106043D02*
X147146595Y-93129852D01*
X147146595Y-93129852D02*
X147122785Y-93153662D01*
X147122785Y-93153662D02*
X147098976Y-93201281D01*
X147098976Y-93201281D02*
X147098976Y-93296519D01*
X147098976Y-93296519D02*
X147122785Y-93344138D01*
X147098976Y-93534614D02*
X147432309Y-93629852D01*
X147432309Y-93629852D02*
X147194214Y-93725090D01*
X147194214Y-93725090D02*
X147432309Y-93820328D01*
X147432309Y-93820328D02*
X147098976Y-93915566D01*
X147432309Y-94106043D02*
X147098976Y-94106043D01*
X146932309Y-94106043D02*
X146956119Y-94082234D01*
X146956119Y-94082234D02*
X146979928Y-94106043D01*
X146979928Y-94106043D02*
X146956119Y-94129853D01*
X146956119Y-94129853D02*
X146932309Y-94106043D01*
X146932309Y-94106043D02*
X146979928Y-94106043D01*
X147408500Y-94558424D02*
X147432309Y-94510805D01*
X147432309Y-94510805D02*
X147432309Y-94415567D01*
X147432309Y-94415567D02*
X147408500Y-94367948D01*
X147408500Y-94367948D02*
X147384690Y-94344138D01*
X147384690Y-94344138D02*
X147337071Y-94320329D01*
X147337071Y-94320329D02*
X147194214Y-94320329D01*
X147194214Y-94320329D02*
X147146595Y-94344138D01*
X147146595Y-94344138D02*
X147122785Y-94367948D01*
X147122785Y-94367948D02*
X147098976Y-94415567D01*
X147098976Y-94415567D02*
X147098976Y-94510805D01*
X147098976Y-94510805D02*
X147122785Y-94558424D01*
X147432309Y-94772709D02*
X146932309Y-94772709D01*
X147432309Y-94986995D02*
X147170404Y-94986995D01*
X147170404Y-94986995D02*
X147122785Y-94963185D01*
X147122785Y-94963185D02*
X147098976Y-94915566D01*
X147098976Y-94915566D02*
X147098976Y-94844138D01*
X147098976Y-94844138D02*
X147122785Y-94796519D01*
X147122785Y-94796519D02*
X147146595Y-94772709D01*
X147432309Y-95606042D02*
X146932309Y-95606042D01*
X147122785Y-95606042D02*
X147098976Y-95653661D01*
X147098976Y-95653661D02*
X147098976Y-95748899D01*
X147098976Y-95748899D02*
X147122785Y-95796518D01*
X147122785Y-95796518D02*
X147146595Y-95820328D01*
X147146595Y-95820328D02*
X147194214Y-95844137D01*
X147194214Y-95844137D02*
X147337071Y-95844137D01*
X147337071Y-95844137D02*
X147384690Y-95820328D01*
X147384690Y-95820328D02*
X147408500Y-95796518D01*
X147408500Y-95796518D02*
X147432309Y-95748899D01*
X147432309Y-95748899D02*
X147432309Y-95653661D01*
X147432309Y-95653661D02*
X147408500Y-95606042D01*
X147432309Y-96129852D02*
X147408500Y-96082233D01*
X147408500Y-96082233D02*
X147384690Y-96058423D01*
X147384690Y-96058423D02*
X147337071Y-96034614D01*
X147337071Y-96034614D02*
X147194214Y-96034614D01*
X147194214Y-96034614D02*
X147146595Y-96058423D01*
X147146595Y-96058423D02*
X147122785Y-96082233D01*
X147122785Y-96082233D02*
X147098976Y-96129852D01*
X147098976Y-96129852D02*
X147098976Y-96201280D01*
X147098976Y-96201280D02*
X147122785Y-96248899D01*
X147122785Y-96248899D02*
X147146595Y-96272709D01*
X147146595Y-96272709D02*
X147194214Y-96296518D01*
X147194214Y-96296518D02*
X147337071Y-96296518D01*
X147337071Y-96296518D02*
X147384690Y-96272709D01*
X147384690Y-96272709D02*
X147408500Y-96248899D01*
X147408500Y-96248899D02*
X147432309Y-96201280D01*
X147432309Y-96201280D02*
X147432309Y-96129852D01*
X147432309Y-96725090D02*
X147170404Y-96725090D01*
X147170404Y-96725090D02*
X147122785Y-96701280D01*
X147122785Y-96701280D02*
X147098976Y-96653661D01*
X147098976Y-96653661D02*
X147098976Y-96558423D01*
X147098976Y-96558423D02*
X147122785Y-96510804D01*
X147408500Y-96725090D02*
X147432309Y-96677471D01*
X147432309Y-96677471D02*
X147432309Y-96558423D01*
X147432309Y-96558423D02*
X147408500Y-96510804D01*
X147408500Y-96510804D02*
X147360880Y-96486995D01*
X147360880Y-96486995D02*
X147313261Y-96486995D01*
X147313261Y-96486995D02*
X147265642Y-96510804D01*
X147265642Y-96510804D02*
X147241833Y-96558423D01*
X147241833Y-96558423D02*
X147241833Y-96677471D01*
X147241833Y-96677471D02*
X147218023Y-96725090D01*
X147432309Y-96963185D02*
X147098976Y-96963185D01*
X147194214Y-96963185D02*
X147146595Y-96986995D01*
X147146595Y-96986995D02*
X147122785Y-97010804D01*
X147122785Y-97010804D02*
X147098976Y-97058423D01*
X147098976Y-97058423D02*
X147098976Y-97106042D01*
X147432309Y-97486995D02*
X146932309Y-97486995D01*
X147408500Y-97486995D02*
X147432309Y-97439376D01*
X147432309Y-97439376D02*
X147432309Y-97344138D01*
X147432309Y-97344138D02*
X147408500Y-97296519D01*
X147408500Y-97296519D02*
X147384690Y-97272709D01*
X147384690Y-97272709D02*
X147337071Y-97248900D01*
X147337071Y-97248900D02*
X147194214Y-97248900D01*
X147194214Y-97248900D02*
X147146595Y-97272709D01*
X147146595Y-97272709D02*
X147122785Y-97296519D01*
X147122785Y-97296519D02*
X147098976Y-97344138D01*
X147098976Y-97344138D02*
X147098976Y-97439376D01*
X147098976Y-97439376D02*
X147122785Y-97486995D01*
M02*
