%TF.GenerationSoftware,KiCad,Pcbnew,9.0.2+dfsg-1*%
%TF.CreationDate,2026-07-31T23:46:08+02:00*%
%TF.ProjectId,D4v2Charger,44347632-4368-4617-9267-65722e6b6963,rev?*%
%TF.SameCoordinates,Original*%
%TF.FileFunction,Paste,Top*%
%TF.FilePolarity,Positive*%
%FSLAX46Y46*%
G04 Gerber Fmt 4.6, Leading zero omitted, Abs format (unit mm)*
G04 Created by KiCad (PCBNEW 9.0.2+dfsg-1) date 2026-07-31 23:46:08*
%MOMM*%
%LPD*%
G01*
G04 APERTURE LIST*
G04 Aperture macros list*
%AMRoundRect*
0 Rectangle with rounded corners*
0 $1 Rounding radius*
0 $2 $3 $4 $5 $6 $7 $8 $9 X,Y pos of 4 corners*
0 Add a 4 corners polygon primitive as box body*
4,1,4,$2,$3,$4,$5,$6,$7,$8,$9,$2,$3,0*
0 Add four circle primitives for the rounded corners*
1,1,$1+$1,$2,$3*
1,1,$1+$1,$4,$5*
1,1,$1+$1,$6,$7*
1,1,$1+$1,$8,$9*
0 Add four rect primitives between the rounded corners*
20,1,$1+$1,$2,$3,$4,$5,0*
20,1,$1+$1,$4,$5,$6,$7,0*
20,1,$1+$1,$6,$7,$8,$9,0*
20,1,$1+$1,$8,$9,$2,$3,0*%
G04 Aperture macros list end*
%ADD10C,0.010000*%
%ADD11C,6.000000*%
%ADD12RoundRect,0.135000X0.135000X0.185000X-0.135000X0.185000X-0.135000X-0.185000X0.135000X-0.185000X0*%
%ADD13RoundRect,0.140000X0.140000X0.170000X-0.140000X0.170000X-0.140000X-0.170000X0.140000X-0.170000X0*%
%ADD14R,0.559000X0.584000*%
%ADD15RoundRect,0.050000X-0.325000X-0.050000X0.325000X-0.050000X0.325000X0.050000X-0.325000X0.050000X0*%
%ADD16RoundRect,0.210000X-0.210000X-0.495000X0.210000X-0.495000X0.210000X0.495000X-0.210000X0.495000X0*%
%ADD17RoundRect,0.140000X-0.140000X-0.170000X0.140000X-0.170000X0.140000X0.170000X-0.140000X0.170000X0*%
%ADD18RoundRect,0.218750X0.218750X0.256250X-0.218750X0.256250X-0.218750X-0.256250X0.218750X-0.256250X0*%
%ADD19RoundRect,0.135000X-0.135000X-0.185000X0.135000X-0.185000X0.135000X0.185000X-0.135000X0.185000X0*%
%ADD20RoundRect,0.135000X0.185000X-0.135000X0.185000X0.135000X-0.185000X0.135000X-0.185000X-0.135000X0*%
%ADD21R,0.400000X0.500000*%
%ADD22RoundRect,0.218750X-0.218750X-0.256250X0.218750X-0.256250X0.218750X0.256250X-0.218750X0.256250X0*%
G04 APERTURE END LIST*
D10*
%TO.C,D3*%
X166620000Y-91479000D02*
X166120000Y-91479000D01*
X166120000Y-90979000D01*
X166620000Y-90979000D01*
X166620000Y-91479000D01*
G36*
X166620000Y-91479000D02*
G01*
X166120000Y-91479000D01*
X166120000Y-90979000D01*
X166620000Y-90979000D01*
X166620000Y-91479000D01*
G37*
X166620000Y-93679000D02*
X166120000Y-93679000D01*
X166120000Y-93179000D01*
X166620000Y-93179000D01*
X166620000Y-93679000D01*
G36*
X166620000Y-93679000D02*
G01*
X166120000Y-93679000D01*
X166120000Y-93179000D01*
X166620000Y-93179000D01*
X166620000Y-93679000D01*
G37*
%TD*%
D11*
%TO.C,TP1*%
X171450000Y-88900000D03*
%TD*%
D12*
%TO.C,R5*%
X166876000Y-84836000D03*
X167896000Y-84836000D03*
%TD*%
D13*
%TO.C,C3*%
X167414000Y-83566000D03*
X168374000Y-83566000D03*
%TD*%
D14*
%TO.C,F1*%
X167894000Y-94463000D03*
X167894000Y-93497000D03*
%TD*%
D15*
%TO.C,U1*%
X172550000Y-82600000D03*
X172550000Y-83000000D03*
X172550000Y-83400000D03*
X172550000Y-83800000D03*
X172550000Y-84200000D03*
X170350000Y-84200000D03*
X170350000Y-83800000D03*
X170350000Y-83400000D03*
X170350000Y-83000000D03*
X170350000Y-82600000D03*
D16*
X171450000Y-83400000D03*
%TD*%
D17*
%TO.C,C2*%
X167950000Y-82550000D03*
X168910000Y-82550000D03*
%TD*%
%TO.C,C1*%
X174698398Y-83321349D03*
X175658398Y-83321349D03*
%TD*%
D18*
%TO.C,D2*%
X177952500Y-90932000D03*
X176377500Y-90932000D03*
%TD*%
D19*
%TO.C,R4*%
X176782000Y-89408000D03*
X177802000Y-89408000D03*
%TD*%
%TO.C,R6*%
X174440000Y-85400000D03*
X175460000Y-85400000D03*
%TD*%
%TO.C,R7*%
X174440000Y-84400000D03*
X175460000Y-84400000D03*
%TD*%
D20*
%TO.C,R3*%
X164973000Y-91188000D03*
X164973000Y-90168000D03*
%TD*%
D21*
%TO.C,TH1*%
X175850000Y-86400000D03*
X175050000Y-86400000D03*
%TD*%
D22*
%TO.C,D1*%
X164947500Y-89027000D03*
X166522500Y-89027000D03*
%TD*%
M02*
