%TF.GenerationSoftware,KiCad,Pcbnew,9.0.2+dfsg-1*%
%TF.CreationDate,2026-07-31T23:46:08+02:00*%
%TF.ProjectId,D4v2Charger,44347632-4368-4617-9267-65722e6b6963,rev?*%
%TF.SameCoordinates,Original*%
%TF.FileFunction,Legend,Bot*%
%TF.FilePolarity,Positive*%
%FSLAX46Y46*%
G04 Gerber Fmt 4.6, Leading zero omitted, Abs format (unit mm)*
G04 Created by KiCad (PCBNEW 9.0.2+dfsg-1) date 2026-07-31 23:46:08*
%MOMM*%
%LPD*%
G01*
G04 APERTURE LIST*
%ADD10C,0.000000*%
%ADD11C,0.200000*%
%ADD12C,0.125000*%
G04 APERTURE END LIST*
D10*
G36*
X177570722Y-85628820D02*
G01*
X177579892Y-85629340D01*
X177588969Y-85630200D01*
X177597946Y-85631392D01*
X177606818Y-85632911D01*
X177615577Y-85634750D01*
X177624218Y-85636903D01*
X177632734Y-85639364D01*
X177641119Y-85642126D01*
X177649366Y-85645183D01*
X177657470Y-85648528D01*
X177665424Y-85652157D01*
X177673222Y-85656061D01*
X177680857Y-85660235D01*
X177688324Y-85664672D01*
X177695615Y-85669367D01*
X177702725Y-85674313D01*
X177709647Y-85679503D01*
X177716376Y-85684931D01*
X177722903Y-85690592D01*
X177729225Y-85696478D01*
X177735333Y-85702583D01*
X177741223Y-85708902D01*
X177746886Y-85715427D01*
X177752319Y-85722152D01*
X177757513Y-85729072D01*
X177762462Y-85736180D01*
X177767161Y-85743469D01*
X177771603Y-85750933D01*
X177775782Y-85758566D01*
X177779692Y-85766362D01*
X177783325Y-85774314D01*
X177880957Y-85774314D01*
X178006633Y-85774314D01*
X178575677Y-85774314D01*
X178575677Y-89716301D01*
X178450000Y-89716301D01*
X178006633Y-89716301D01*
X177880957Y-89716301D01*
X177880956Y-89716301D01*
X177783325Y-89716301D01*
X177775781Y-89732049D01*
X177767159Y-89747146D01*
X177757510Y-89761543D01*
X177746884Y-89775188D01*
X177735331Y-89788032D01*
X177722902Y-89800023D01*
X177709647Y-89811112D01*
X177695615Y-89821248D01*
X177680858Y-89830380D01*
X177665426Y-89838459D01*
X177649368Y-89845432D01*
X177632736Y-89851251D01*
X177615579Y-89855865D01*
X177597948Y-89859223D01*
X177579893Y-89861275D01*
X177561464Y-89861970D01*
X177550098Y-89861699D01*
X177538844Y-89860894D01*
X177527716Y-89859566D01*
X177516728Y-89857728D01*
X177505892Y-89855391D01*
X177495223Y-89852567D01*
X177484733Y-89849267D01*
X177474437Y-89845504D01*
X177464348Y-89841289D01*
X177454480Y-89836633D01*
X177444845Y-89831549D01*
X177435458Y-89826049D01*
X177426332Y-89820144D01*
X177417481Y-89813845D01*
X177408918Y-89807165D01*
X177400656Y-89800115D01*
X177394052Y-89807066D01*
X177387104Y-89813672D01*
X177379826Y-89819920D01*
X177372234Y-89825794D01*
X177364341Y-89831282D01*
X177356162Y-89836368D01*
X177347710Y-89841038D01*
X177339001Y-89845278D01*
X177330049Y-89849072D01*
X177320867Y-89852408D01*
X177311471Y-89855269D01*
X177301875Y-89857643D01*
X177292093Y-89859515D01*
X177282139Y-89860869D01*
X177272028Y-89861692D01*
X177261775Y-89861970D01*
X177261733Y-89861969D01*
X177253482Y-89861789D01*
X177245281Y-89861249D01*
X177237179Y-89860359D01*
X177229183Y-89859127D01*
X177221302Y-89857560D01*
X177213542Y-89855665D01*
X177205912Y-89853450D01*
X177198419Y-89850922D01*
X177191070Y-89848090D01*
X177183874Y-89844961D01*
X177176837Y-89841542D01*
X177169967Y-89837842D01*
X177163272Y-89833866D01*
X177156759Y-89829624D01*
X177150437Y-89825123D01*
X177144311Y-89820371D01*
X177138391Y-89815374D01*
X177132684Y-89810141D01*
X177127197Y-89804678D01*
X177121938Y-89798995D01*
X177116914Y-89793098D01*
X177112133Y-89786995D01*
X177107602Y-89780694D01*
X177103330Y-89774201D01*
X177099324Y-89767525D01*
X177095590Y-89760674D01*
X177092138Y-89753654D01*
X177088974Y-89746474D01*
X177086106Y-89739141D01*
X177083541Y-89731663D01*
X177081288Y-89724047D01*
X177079353Y-89716301D01*
X176505622Y-89716301D01*
X176505622Y-87808154D01*
X176167601Y-87808154D01*
X176164679Y-87819683D01*
X176161285Y-87831018D01*
X176157430Y-87842147D01*
X176153124Y-87853060D01*
X176148379Y-87863744D01*
X176143206Y-87874189D01*
X176131621Y-87894315D01*
X176118459Y-87913349D01*
X176103810Y-87931201D01*
X176087764Y-87947779D01*
X176070410Y-87962995D01*
X176051838Y-87976758D01*
X176032138Y-87988978D01*
X176011399Y-87999566D01*
X176000669Y-88004219D01*
X175989712Y-88008430D01*
X175978541Y-88012188D01*
X175967166Y-88015481D01*
X175955599Y-88018299D01*
X175943850Y-88020629D01*
X175931932Y-88022461D01*
X175919855Y-88023784D01*
X175907631Y-88024586D01*
X175895271Y-88024856D01*
X175880908Y-88024491D01*
X175866730Y-88023410D01*
X175852757Y-88021629D01*
X175839005Y-88019167D01*
X175825493Y-88016040D01*
X175812237Y-88012268D01*
X175799255Y-88007866D01*
X175786566Y-88002854D01*
X175774187Y-87997249D01*
X175762136Y-87991068D01*
X175750430Y-87984330D01*
X175739087Y-87977051D01*
X175728125Y-87969250D01*
X175717561Y-87960945D01*
X175707413Y-87952152D01*
X175697700Y-87942890D01*
X175688438Y-87933176D01*
X175679645Y-87923029D01*
X175671339Y-87912465D01*
X175663538Y-87901503D01*
X175656259Y-87890160D01*
X175649520Y-87878454D01*
X175643339Y-87866403D01*
X175637733Y-87854024D01*
X175632721Y-87841334D01*
X175628320Y-87828353D01*
X175624547Y-87815097D01*
X175621420Y-87801584D01*
X175618958Y-87787831D01*
X175617177Y-87773858D01*
X175616095Y-87759680D01*
X175615731Y-87745316D01*
X175741408Y-87745316D01*
X175741608Y-87753222D01*
X175742203Y-87761025D01*
X175743183Y-87768716D01*
X175744539Y-87776286D01*
X175746259Y-87783723D01*
X175748336Y-87791020D01*
X175750758Y-87798165D01*
X175753517Y-87805149D01*
X175756602Y-87811963D01*
X175760004Y-87818596D01*
X175763713Y-87825039D01*
X175767719Y-87831282D01*
X175772012Y-87837316D01*
X175776584Y-87843131D01*
X175781423Y-87848716D01*
X175786521Y-87854062D01*
X175791867Y-87859160D01*
X175797453Y-87864000D01*
X175803267Y-87868572D01*
X175809301Y-87872866D01*
X175815544Y-87876872D01*
X175821987Y-87880581D01*
X175828620Y-87883983D01*
X175835434Y-87887069D01*
X175842419Y-87889827D01*
X175849564Y-87892250D01*
X175856861Y-87894327D01*
X175864299Y-87896047D01*
X175871868Y-87897403D01*
X175879560Y-87898383D01*
X175887364Y-87898978D01*
X175895271Y-87899179D01*
X175903177Y-87898978D01*
X175910980Y-87898383D01*
X175918671Y-87897403D01*
X175926241Y-87896047D01*
X175933679Y-87894326D01*
X175940975Y-87892249D01*
X175948120Y-87889826D01*
X175955105Y-87887067D01*
X175961919Y-87883982D01*
X175968552Y-87880579D01*
X175974995Y-87876870D01*
X175981239Y-87872864D01*
X175987273Y-87868569D01*
X175993087Y-87863997D01*
X175998673Y-87859158D01*
X176004019Y-87854059D01*
X176009117Y-87848713D01*
X176013957Y-87843127D01*
X176018529Y-87837313D01*
X176022822Y-87831279D01*
X176026828Y-87825035D01*
X176030537Y-87818592D01*
X176033939Y-87811959D01*
X176037023Y-87805145D01*
X176039782Y-87798161D01*
X176042203Y-87791016D01*
X176044279Y-87783720D01*
X176045999Y-87776283D01*
X176047354Y-87768714D01*
X176048333Y-87761024D01*
X176048926Y-87753221D01*
X176049126Y-87745316D01*
X176048925Y-87737409D01*
X176048330Y-87729605D01*
X176047350Y-87721913D01*
X176045994Y-87714343D01*
X176044274Y-87706905D01*
X176042197Y-87699608D01*
X176039775Y-87692463D01*
X176037016Y-87685478D01*
X176033931Y-87678664D01*
X176030530Y-87672030D01*
X176026821Y-87665587D01*
X176022815Y-87659343D01*
X176018521Y-87653309D01*
X176013950Y-87647494D01*
X176009111Y-87641909D01*
X176004013Y-87636562D01*
X175998667Y-87631464D01*
X175993082Y-87626624D01*
X175987268Y-87622052D01*
X175981235Y-87617758D01*
X175974992Y-87613752D01*
X175968549Y-87610042D01*
X175961916Y-87606640D01*
X175955103Y-87603555D01*
X175948119Y-87600796D01*
X175940974Y-87598373D01*
X175933678Y-87596297D01*
X175926240Y-87594576D01*
X175918671Y-87593220D01*
X175910980Y-87592240D01*
X175903177Y-87591645D01*
X175895271Y-87591444D01*
X175887365Y-87591645D01*
X175879562Y-87592240D01*
X175871870Y-87593220D01*
X175864301Y-87594576D01*
X175856863Y-87596297D01*
X175849567Y-87598373D01*
X175842422Y-87600796D01*
X175835438Y-87603555D01*
X175828624Y-87606640D01*
X175821991Y-87610042D01*
X175815548Y-87613752D01*
X175809304Y-87617758D01*
X175803270Y-87622052D01*
X175797456Y-87626624D01*
X175791871Y-87631464D01*
X175786524Y-87636562D01*
X175781426Y-87641909D01*
X175776586Y-87647494D01*
X175772015Y-87653309D01*
X175767721Y-87659343D01*
X175763714Y-87665587D01*
X175760005Y-87672030D01*
X175756603Y-87678664D01*
X175753518Y-87685478D01*
X175750759Y-87692463D01*
X175748337Y-87699608D01*
X175746260Y-87706905D01*
X175744539Y-87714343D01*
X175743184Y-87721913D01*
X175742203Y-87729605D01*
X175741608Y-87737409D01*
X175741408Y-87745316D01*
X175615731Y-87745316D01*
X175616095Y-87730953D01*
X175617177Y-87716776D01*
X175618958Y-87702802D01*
X175621420Y-87689051D01*
X175624547Y-87675538D01*
X175628320Y-87662282D01*
X175632721Y-87649301D01*
X175637733Y-87636612D01*
X175643339Y-87624233D01*
X175649520Y-87612181D01*
X175656259Y-87600475D01*
X175663538Y-87589132D01*
X175671339Y-87578170D01*
X175679645Y-87567606D01*
X175688438Y-87557459D01*
X175697700Y-87547745D01*
X175707413Y-87538483D01*
X175717561Y-87529690D01*
X175728125Y-87521384D01*
X175739087Y-87513583D01*
X175750430Y-87506304D01*
X175762136Y-87499565D01*
X175774187Y-87493384D01*
X175786566Y-87487779D01*
X175799255Y-87482766D01*
X175812237Y-87478365D01*
X175825493Y-87474592D01*
X175839005Y-87471465D01*
X175852757Y-87469003D01*
X175866730Y-87467222D01*
X175880908Y-87466140D01*
X175895271Y-87465776D01*
X175907631Y-87466046D01*
X175919855Y-87466848D01*
X175931932Y-87468170D01*
X175943851Y-87470003D01*
X175955599Y-87472333D01*
X175967166Y-87475151D01*
X175978542Y-87478444D01*
X175989713Y-87482202D01*
X176000670Y-87486413D01*
X176011401Y-87491066D01*
X176021895Y-87496150D01*
X176032140Y-87501653D01*
X176042126Y-87507565D01*
X176051841Y-87513874D01*
X176061274Y-87520568D01*
X176070413Y-87527637D01*
X176079248Y-87535069D01*
X176087767Y-87542853D01*
X176095960Y-87550977D01*
X176103814Y-87559431D01*
X176111319Y-87568203D01*
X176118463Y-87577283D01*
X176125235Y-87586657D01*
X176131624Y-87596316D01*
X176137619Y-87606249D01*
X176143209Y-87616443D01*
X176148381Y-87626888D01*
X176153126Y-87637572D01*
X176157432Y-87648484D01*
X176161287Y-87659614D01*
X176164680Y-87670948D01*
X176167601Y-87682477D01*
X176505622Y-87682477D01*
X176505622Y-85900017D01*
X176631249Y-85900017D01*
X176631249Y-86487399D01*
X176924622Y-86780763D01*
X176835755Y-86869630D01*
X176631258Y-86665132D01*
X176631258Y-87204732D01*
X176924630Y-87498096D01*
X176835764Y-87586963D01*
X176631266Y-87382465D01*
X176631266Y-87922066D01*
X176924639Y-88215430D01*
X176835772Y-88304305D01*
X176631274Y-88099815D01*
X176631274Y-88639407D01*
X176924647Y-88932772D01*
X176835780Y-89021639D01*
X176631282Y-88817149D01*
X176631282Y-89590624D01*
X177074657Y-89590624D01*
X177074657Y-89161362D01*
X177074657Y-89155236D01*
X177200334Y-89155236D01*
X177200334Y-89161362D01*
X177200334Y-89674868D01*
X177200414Y-89678025D01*
X177200651Y-89681141D01*
X177201043Y-89684212D01*
X177201584Y-89687234D01*
X177202271Y-89690204D01*
X177203100Y-89693117D01*
X177204067Y-89695970D01*
X177205168Y-89698759D01*
X177206400Y-89701480D01*
X177207758Y-89704128D01*
X177209239Y-89706701D01*
X177210838Y-89709194D01*
X177212552Y-89711603D01*
X177214376Y-89713925D01*
X177216308Y-89716155D01*
X177218343Y-89718290D01*
X177220477Y-89720325D01*
X177222706Y-89722257D01*
X177225026Y-89724083D01*
X177227434Y-89725797D01*
X177229926Y-89727396D01*
X177232497Y-89728877D01*
X177235144Y-89730234D01*
X177237863Y-89731466D01*
X177240650Y-89732567D01*
X177243500Y-89733533D01*
X177246411Y-89734361D01*
X177249379Y-89735048D01*
X177252399Y-89735588D01*
X177255467Y-89735978D01*
X177258580Y-89736214D01*
X177261733Y-89736293D01*
X177264891Y-89736213D01*
X177268007Y-89735975D01*
X177271079Y-89735583D01*
X177274102Y-89735042D01*
X177277072Y-89734355D01*
X177279986Y-89733525D01*
X177282840Y-89732558D01*
X177285629Y-89731456D01*
X177288350Y-89730224D01*
X177291000Y-89728865D01*
X177293573Y-89727384D01*
X177296066Y-89725784D01*
X177298476Y-89724069D01*
X177300798Y-89722244D01*
X177303029Y-89720311D01*
X177305164Y-89718275D01*
X177307200Y-89716140D01*
X177309133Y-89713910D01*
X177310959Y-89711588D01*
X177312674Y-89709178D01*
X177314274Y-89706685D01*
X177315755Y-89704112D01*
X177317114Y-89701464D01*
X177318346Y-89698743D01*
X177319448Y-89695954D01*
X177320415Y-89693101D01*
X177321245Y-89690187D01*
X177321932Y-89687217D01*
X177322473Y-89684195D01*
X177322865Y-89681124D01*
X177323103Y-89678008D01*
X177323183Y-89674852D01*
X177323690Y-89642986D01*
X177325162Y-89612956D01*
X177327526Y-89584655D01*
X177330711Y-89557978D01*
X177334644Y-89532821D01*
X177339252Y-89509077D01*
X177344462Y-89486641D01*
X177350203Y-89465407D01*
X177356402Y-89445272D01*
X177362986Y-89426128D01*
X177369882Y-89407871D01*
X177377019Y-89390395D01*
X177391723Y-89357366D01*
X177406518Y-89326198D01*
X177420046Y-89297735D01*
X177433003Y-89268743D01*
X177439149Y-89253760D01*
X177445011Y-89238299D01*
X177450539Y-89222244D01*
X177455687Y-89205479D01*
X177460408Y-89187889D01*
X177464653Y-89169358D01*
X177468376Y-89149772D01*
X177471528Y-89129013D01*
X177474063Y-89106968D01*
X177475932Y-89083521D01*
X177477088Y-89058556D01*
X177477484Y-89031957D01*
X177477088Y-89005356D01*
X177475932Y-88980389D01*
X177474062Y-88956939D01*
X177471527Y-88934892D01*
X177468374Y-88914132D01*
X177464651Y-88894543D01*
X177460405Y-88876011D01*
X177455684Y-88858418D01*
X177450536Y-88841651D01*
X177445007Y-88825593D01*
X177439146Y-88810130D01*
X177433000Y-88795145D01*
X177420043Y-88766149D01*
X177406518Y-88737683D01*
X177391721Y-88706517D01*
X177377016Y-88673491D01*
X177362982Y-88637761D01*
X177356398Y-88618619D01*
X177350200Y-88598484D01*
X177344460Y-88577252D01*
X177339250Y-88554817D01*
X177334642Y-88531074D01*
X177330710Y-88505917D01*
X177327526Y-88479241D01*
X177325161Y-88450941D01*
X177323690Y-88420911D01*
X177323183Y-88389045D01*
X177323690Y-88357180D01*
X177325161Y-88327149D01*
X177327526Y-88298848D01*
X177330710Y-88272171D01*
X177334642Y-88247012D01*
X177339250Y-88223268D01*
X177344460Y-88200831D01*
X177350200Y-88179597D01*
X177356398Y-88159460D01*
X177362982Y-88140316D01*
X177369879Y-88122058D01*
X177377016Y-88104582D01*
X177391721Y-88071552D01*
X177406518Y-88040383D01*
X177413316Y-88026183D01*
X177420020Y-88011968D01*
X177426582Y-87997622D01*
X177429794Y-87990362D01*
X177432952Y-87983026D01*
X177441935Y-87960736D01*
X177450243Y-87937276D01*
X177457724Y-87912276D01*
X177461107Y-87899084D01*
X177464226Y-87885367D01*
X177467063Y-87871082D01*
X177469598Y-87856180D01*
X177471813Y-87840616D01*
X177473688Y-87824345D01*
X177475206Y-87807318D01*
X177476346Y-87789492D01*
X177477089Y-87770818D01*
X177477418Y-87751252D01*
X177477432Y-87750164D01*
X177477454Y-87749093D01*
X177477475Y-87748021D01*
X177477484Y-87746928D01*
X177477467Y-87745299D01*
X177477484Y-87744282D01*
X177477256Y-87724194D01*
X177476593Y-87705040D01*
X177475517Y-87686770D01*
X177474047Y-87669337D01*
X177472203Y-87652691D01*
X177470006Y-87636784D01*
X177467474Y-87621567D01*
X177464629Y-87606992D01*
X177461491Y-87593010D01*
X177458078Y-87579573D01*
X177454413Y-87566631D01*
X177450514Y-87554136D01*
X177446401Y-87542039D01*
X177442096Y-87530292D01*
X177432985Y-87507654D01*
X177429824Y-87500308D01*
X177426608Y-87493039D01*
X177420037Y-87478671D01*
X177413323Y-87464435D01*
X177406518Y-87450215D01*
X177391721Y-87419049D01*
X177377016Y-87386022D01*
X177362982Y-87350290D01*
X177356398Y-87331147D01*
X177350200Y-87311011D01*
X177344460Y-87289778D01*
X177339250Y-87267342D01*
X177334642Y-87243597D01*
X177330710Y-87218439D01*
X177327526Y-87191761D01*
X177325161Y-87163459D01*
X177323690Y-87133428D01*
X177323183Y-87101578D01*
X177448901Y-87101578D01*
X177449297Y-87128178D01*
X177450454Y-87153145D01*
X177452323Y-87176595D01*
X177454858Y-87198642D01*
X177458011Y-87219402D01*
X177461734Y-87238991D01*
X177465980Y-87257524D01*
X177470701Y-87275117D01*
X177475850Y-87291885D01*
X177481378Y-87307943D01*
X177487239Y-87323407D01*
X177493385Y-87338393D01*
X177506342Y-87367391D01*
X177519867Y-87395860D01*
X177534664Y-87427025D01*
X177549370Y-87460053D01*
X177563403Y-87495784D01*
X177569987Y-87514928D01*
X177576185Y-87535063D01*
X177581925Y-87556297D01*
X177587136Y-87578733D01*
X177591743Y-87602477D01*
X177595675Y-87627636D01*
X177598860Y-87654313D01*
X177601224Y-87682615D01*
X177602696Y-87712647D01*
X177603202Y-87744514D01*
X177603202Y-87746118D01*
X177602696Y-87777983D01*
X177601224Y-87808014D01*
X177598860Y-87836315D01*
X177595675Y-87862992D01*
X177591743Y-87888150D01*
X177587136Y-87911895D01*
X177581925Y-87934331D01*
X177576185Y-87955565D01*
X177569987Y-87975701D01*
X177563403Y-87994845D01*
X177556507Y-88013102D01*
X177549370Y-88030578D01*
X177534664Y-88063606D01*
X177519867Y-88094772D01*
X177506339Y-88123241D01*
X177493382Y-88152238D01*
X177487236Y-88167223D01*
X177481375Y-88182687D01*
X177475846Y-88198745D01*
X177470698Y-88215512D01*
X177465977Y-88233105D01*
X177461732Y-88251639D01*
X177458009Y-88271228D01*
X177454857Y-88291990D01*
X177452323Y-88314038D01*
X177450453Y-88337489D01*
X177449297Y-88362459D01*
X177448901Y-88389062D01*
X177449001Y-88402573D01*
X177449296Y-88415661D01*
X177449782Y-88428341D01*
X177450451Y-88440628D01*
X177451299Y-88452535D01*
X177452319Y-88464077D01*
X177453506Y-88475268D01*
X177454854Y-88486123D01*
X177457164Y-88501807D01*
X177459801Y-88516815D01*
X177462745Y-88531197D01*
X177465976Y-88545000D01*
X177469474Y-88558275D01*
X177473220Y-88571069D01*
X177477193Y-88583432D01*
X177481372Y-88595411D01*
X177485739Y-88607056D01*
X177490272Y-88618416D01*
X177499760Y-88640475D01*
X177509676Y-88661976D01*
X177519859Y-88683311D01*
X177539289Y-88724565D01*
X177548909Y-88746444D01*
X177558247Y-88769476D01*
X177567140Y-88793898D01*
X177571368Y-88806706D01*
X177575424Y-88819950D01*
X177579286Y-88833662D01*
X177582935Y-88847870D01*
X177586350Y-88862605D01*
X177589510Y-88877896D01*
X177591195Y-88886895D01*
X177592785Y-88896089D01*
X177594278Y-88905486D01*
X177595670Y-88915094D01*
X177597361Y-88928235D01*
X177598856Y-88941770D01*
X177600145Y-88955710D01*
X177601218Y-88970070D01*
X177602067Y-88984865D01*
X177602687Y-89000103D01*
X177603066Y-89015798D01*
X177603194Y-89031965D01*
X177603157Y-89040699D01*
X177603045Y-89049296D01*
X177602063Y-89079153D01*
X177600214Y-89107348D01*
X177597564Y-89133975D01*
X177594177Y-89159130D01*
X177590120Y-89182906D01*
X177585458Y-89205400D01*
X177580256Y-89226706D01*
X177574580Y-89246919D01*
X177568494Y-89266135D01*
X177562065Y-89284447D01*
X177555358Y-89301951D01*
X177548437Y-89318743D01*
X177534219Y-89350566D01*
X177519933Y-89380677D01*
X177507161Y-89407556D01*
X177494883Y-89434843D01*
X177483416Y-89463314D01*
X177478086Y-89478236D01*
X177473077Y-89493744D01*
X177468430Y-89509935D01*
X177464183Y-89526907D01*
X177460377Y-89544755D01*
X177457051Y-89563576D01*
X177454245Y-89583468D01*
X177451997Y-89604528D01*
X177450349Y-89626851D01*
X177449339Y-89650535D01*
X177450703Y-89655186D01*
X177452253Y-89659749D01*
X177453984Y-89664220D01*
X177455892Y-89668594D01*
X177460219Y-89677041D01*
X177465195Y-89685057D01*
X177470781Y-89692611D01*
X177476938Y-89699673D01*
X177483629Y-89706210D01*
X177490814Y-89712192D01*
X177498454Y-89717588D01*
X177506512Y-89722365D01*
X177514949Y-89726493D01*
X177523726Y-89729941D01*
X177532805Y-89732677D01*
X177537445Y-89733768D01*
X177542146Y-89734670D01*
X177546904Y-89735378D01*
X177551713Y-89735888D01*
X177556568Y-89736197D01*
X177561464Y-89736301D01*
X177567434Y-89736150D01*
X177573326Y-89735701D01*
X177579134Y-89734960D01*
X177584850Y-89733937D01*
X177590466Y-89732638D01*
X177595976Y-89731070D01*
X177601372Y-89729241D01*
X177606646Y-89727157D01*
X177611791Y-89724828D01*
X177616800Y-89722259D01*
X177621666Y-89719458D01*
X177626381Y-89716433D01*
X177630938Y-89713191D01*
X177635329Y-89709739D01*
X177639547Y-89706085D01*
X177643584Y-89702235D01*
X177647434Y-89698198D01*
X177651089Y-89693981D01*
X177654542Y-89689590D01*
X177657785Y-89685034D01*
X177660810Y-89680320D01*
X177663612Y-89675454D01*
X177666181Y-89670445D01*
X177668511Y-89665300D01*
X177670595Y-89660026D01*
X177672424Y-89654630D01*
X177673993Y-89649121D01*
X177675292Y-89643504D01*
X177676316Y-89637788D01*
X177677057Y-89631980D01*
X177677506Y-89626087D01*
X177677658Y-89620117D01*
X177677658Y-89590624D01*
X177803326Y-89590624D01*
X177880956Y-89590624D01*
X177880956Y-89406631D01*
X178190212Y-88522139D01*
X177880956Y-87637672D01*
X177880956Y-87616340D01*
X178006625Y-87616340D01*
X178323347Y-88522147D01*
X178006625Y-89427972D01*
X178006625Y-89590624D01*
X178450000Y-89590624D01*
X178450000Y-85900000D01*
X178006625Y-85900000D01*
X178006625Y-87616340D01*
X177880956Y-87616340D01*
X177880956Y-85899983D01*
X177803326Y-85899983D01*
X177803326Y-89590624D01*
X177677658Y-89590624D01*
X177677658Y-85870499D01*
X177677506Y-85864529D01*
X177677057Y-85858637D01*
X177676316Y-85852829D01*
X177675292Y-85847114D01*
X177673993Y-85841498D01*
X177672424Y-85835989D01*
X177670595Y-85830594D01*
X177668511Y-85825320D01*
X177666181Y-85820175D01*
X177663612Y-85815167D01*
X177660810Y-85810302D01*
X177657785Y-85805588D01*
X177654542Y-85801032D01*
X177651089Y-85796642D01*
X177647434Y-85792425D01*
X177643584Y-85788388D01*
X177639546Y-85784539D01*
X177635328Y-85780885D01*
X177630937Y-85777433D01*
X177626381Y-85774192D01*
X177621666Y-85771167D01*
X177616800Y-85768367D01*
X177611791Y-85765798D01*
X177606646Y-85763469D01*
X177601371Y-85761387D01*
X177595976Y-85759558D01*
X177590466Y-85757991D01*
X177584850Y-85756692D01*
X177579134Y-85755669D01*
X177573326Y-85754930D01*
X177567434Y-85754481D01*
X177561464Y-85754330D01*
X177556568Y-85754434D01*
X177551712Y-85754743D01*
X177546904Y-85755254D01*
X177542146Y-85755961D01*
X177537445Y-85756863D01*
X177532804Y-85757954D01*
X177528229Y-85759230D01*
X177523725Y-85760689D01*
X177519296Y-85762325D01*
X177514948Y-85764135D01*
X177510684Y-85766116D01*
X177506510Y-85768262D01*
X177502431Y-85770571D01*
X177498452Y-85773039D01*
X177494576Y-85775661D01*
X177490810Y-85778433D01*
X177487158Y-85781352D01*
X177483625Y-85784414D01*
X177480216Y-85787615D01*
X177476934Y-85790951D01*
X177473787Y-85794418D01*
X177470777Y-85798013D01*
X177467910Y-85801730D01*
X177465191Y-85805568D01*
X177462625Y-85809520D01*
X177460216Y-85813584D01*
X177457969Y-85817757D01*
X177455890Y-85822032D01*
X177453982Y-85826408D01*
X177452251Y-85830880D01*
X177450702Y-85835444D01*
X177449339Y-85840096D01*
X177450349Y-85863782D01*
X177451998Y-85886107D01*
X177454245Y-85907168D01*
X177457052Y-85927061D01*
X177460379Y-85945884D01*
X177464185Y-85963734D01*
X177468432Y-85980706D01*
X177473080Y-85996899D01*
X177478089Y-86012408D01*
X177483420Y-86027331D01*
X177489032Y-86041764D01*
X177494886Y-86055804D01*
X177507163Y-86083092D01*
X177519933Y-86109971D01*
X177534193Y-86140030D01*
X177548386Y-86171796D01*
X177561991Y-86206023D01*
X177568411Y-86224295D01*
X177574490Y-86243466D01*
X177580162Y-86263630D01*
X177585362Y-86284882D01*
X177590026Y-86307316D01*
X177594088Y-86331025D01*
X177597483Y-86356106D01*
X177600147Y-86382652D01*
X177602015Y-86410758D01*
X177603020Y-86440517D01*
X177603155Y-86449525D01*
X177603202Y-86458674D01*
X177602696Y-86490538D01*
X177601224Y-86520568D01*
X177598860Y-86548867D01*
X177595675Y-86575543D01*
X177591743Y-86600700D01*
X177587136Y-86624443D01*
X177581925Y-86646878D01*
X177576185Y-86668110D01*
X177569987Y-86688245D01*
X177563403Y-86707388D01*
X177556507Y-86725644D01*
X177549370Y-86743119D01*
X177534664Y-86776146D01*
X177519867Y-86807312D01*
X177506339Y-86835778D01*
X177493382Y-86864773D01*
X177487236Y-86879757D01*
X177481375Y-86895220D01*
X177475846Y-86911277D01*
X177470698Y-86928043D01*
X177465977Y-86945635D01*
X177461732Y-86964167D01*
X177458009Y-86983755D01*
X177454857Y-87004515D01*
X177452323Y-87026561D01*
X177450453Y-87050010D01*
X177449297Y-87074977D01*
X177448901Y-87101578D01*
X177323183Y-87101578D01*
X177323183Y-87101561D01*
X177323690Y-87069697D01*
X177325161Y-87039668D01*
X177327526Y-87011368D01*
X177330710Y-86984693D01*
X177334642Y-86959536D01*
X177339250Y-86935793D01*
X177344460Y-86913357D01*
X177350200Y-86892125D01*
X177356398Y-86871990D01*
X177362982Y-86852847D01*
X177369879Y-86834591D01*
X177377016Y-86817116D01*
X177391721Y-86784089D01*
X177406518Y-86752923D01*
X177420046Y-86724457D01*
X177433003Y-86695462D01*
X177439149Y-86680478D01*
X177445011Y-86665015D01*
X177450539Y-86648958D01*
X177455687Y-86632192D01*
X177460408Y-86614600D01*
X177464653Y-86596068D01*
X177468376Y-86576480D01*
X177471528Y-86555721D01*
X177474063Y-86533674D01*
X177475932Y-86510225D01*
X177477088Y-86485258D01*
X177477484Y-86458658D01*
X177477088Y-86432060D01*
X177475932Y-86407096D01*
X177474062Y-86383649D01*
X177471527Y-86361605D01*
X177468374Y-86340847D01*
X177464651Y-86321260D01*
X177460405Y-86302729D01*
X177455684Y-86285139D01*
X177450536Y-86268374D01*
X177445007Y-86252318D01*
X177439146Y-86236856D01*
X177433000Y-86221873D01*
X177420043Y-86192880D01*
X177406518Y-86164417D01*
X177391723Y-86133249D01*
X177377019Y-86100221D01*
X177362986Y-86064489D01*
X177356402Y-86045346D01*
X177350203Y-86025211D01*
X177344462Y-86003979D01*
X177339252Y-85981544D01*
X177334644Y-85957800D01*
X177330711Y-85932643D01*
X177327526Y-85905967D01*
X177325162Y-85877667D01*
X177323690Y-85847637D01*
X177323183Y-85815771D01*
X177323103Y-85812614D01*
X177322865Y-85809497D01*
X177322474Y-85806426D01*
X177321932Y-85803402D01*
X177321245Y-85800432D01*
X177320416Y-85797518D01*
X177319449Y-85794664D01*
X177318347Y-85791874D01*
X177317115Y-85789152D01*
X177315757Y-85786503D01*
X177314276Y-85783929D01*
X177312676Y-85781435D01*
X177310961Y-85779025D01*
X177309136Y-85776702D01*
X177307203Y-85774471D01*
X177305167Y-85772335D01*
X177303032Y-85770299D01*
X177300802Y-85768365D01*
X177298480Y-85766539D01*
X177296070Y-85764823D01*
X177293577Y-85763223D01*
X177291003Y-85761741D01*
X177288354Y-85760381D01*
X177285633Y-85759148D01*
X177282843Y-85758046D01*
X177279990Y-85757077D01*
X177277075Y-85756247D01*
X177274105Y-85755559D01*
X177271081Y-85755017D01*
X177268009Y-85754625D01*
X177264892Y-85754386D01*
X177261734Y-85754306D01*
X177258577Y-85754386D01*
X177255461Y-85754623D01*
X177252390Y-85755015D01*
X177249368Y-85755557D01*
X177246399Y-85756244D01*
X177243485Y-85757074D01*
X177240632Y-85758041D01*
X177237844Y-85759144D01*
X177235123Y-85760376D01*
X177232475Y-85761735D01*
X177229902Y-85763217D01*
X177227410Y-85764817D01*
X177225000Y-85766533D01*
X177222679Y-85768359D01*
X177220449Y-85770292D01*
X177218314Y-85772329D01*
X177216279Y-85774465D01*
X177214346Y-85776696D01*
X177212521Y-85779019D01*
X177210807Y-85781429D01*
X177209207Y-85783923D01*
X177207726Y-85786497D01*
X177206368Y-85789147D01*
X177205136Y-85791869D01*
X177204035Y-85794659D01*
X177203067Y-85797514D01*
X177202238Y-85800428D01*
X177201551Y-85803400D01*
X177201010Y-85806423D01*
X177200619Y-85809496D01*
X177200381Y-85812613D01*
X177200301Y-85815771D01*
X177200301Y-88969276D01*
X177200301Y-88990657D01*
X177074624Y-88990657D01*
X177074624Y-88969276D01*
X177074624Y-85900017D01*
X176631249Y-85900017D01*
X176505622Y-85900017D01*
X176505622Y-85774315D01*
X177079361Y-85774315D01*
X177081296Y-85766568D01*
X177083549Y-85758952D01*
X177086114Y-85751474D01*
X177088982Y-85744141D01*
X177092146Y-85736961D01*
X177095598Y-85729941D01*
X177103338Y-85716414D01*
X177112141Y-85703620D01*
X177121945Y-85691620D01*
X177132692Y-85680475D01*
X177144319Y-85670245D01*
X177156766Y-85660991D01*
X177169973Y-85652774D01*
X177176843Y-85649073D01*
X177183879Y-85645654D01*
X177191075Y-85642525D01*
X177198424Y-85639693D01*
X177205917Y-85637165D01*
X177213546Y-85634950D01*
X177221305Y-85633055D01*
X177229186Y-85631488D01*
X177237181Y-85630256D01*
X177245282Y-85629366D01*
X177253483Y-85628827D01*
X177261775Y-85628645D01*
X177272030Y-85628923D01*
X177282142Y-85629746D01*
X177292097Y-85631100D01*
X177301880Y-85632972D01*
X177311476Y-85635346D01*
X177320873Y-85638207D01*
X177330055Y-85641543D01*
X177339007Y-85645337D01*
X177347716Y-85649577D01*
X177356167Y-85654247D01*
X177364346Y-85659333D01*
X177372239Y-85664821D01*
X177379830Y-85670695D01*
X177387107Y-85676943D01*
X177394053Y-85683549D01*
X177400656Y-85690499D01*
X177408918Y-85683448D01*
X177417481Y-85676767D01*
X177426332Y-85670468D01*
X177435458Y-85664561D01*
X177444845Y-85659060D01*
X177454480Y-85653976D01*
X177464348Y-85649320D01*
X177474437Y-85645105D01*
X177484733Y-85641342D01*
X177495223Y-85638043D01*
X177505892Y-85635219D01*
X177516728Y-85632882D01*
X177527716Y-85631045D01*
X177538844Y-85629719D01*
X177550098Y-85628915D01*
X177561464Y-85628645D01*
X177570722Y-85628820D01*
G37*
D11*
X176650552Y-90674435D02*
X177317219Y-90912530D01*
X177317219Y-90912530D02*
X176650552Y-91150625D01*
X177317219Y-92055387D02*
X177317219Y-91483959D01*
X177317219Y-91769673D02*
X176317219Y-91769673D01*
X176317219Y-91769673D02*
X176460076Y-91674435D01*
X176460076Y-91674435D02*
X176555314Y-91579197D01*
X176555314Y-91579197D02*
X176602933Y-91483959D01*
X177221980Y-92483959D02*
X177269600Y-92531578D01*
X177269600Y-92531578D02*
X177317219Y-92483959D01*
X177317219Y-92483959D02*
X177269600Y-92436340D01*
X177269600Y-92436340D02*
X177221980Y-92483959D01*
X177221980Y-92483959D02*
X177317219Y-92483959D01*
X176317219Y-93150625D02*
X176317219Y-93245863D01*
X176317219Y-93245863D02*
X176364838Y-93341101D01*
X176364838Y-93341101D02*
X176412457Y-93388720D01*
X176412457Y-93388720D02*
X176507695Y-93436339D01*
X176507695Y-93436339D02*
X176698171Y-93483958D01*
X176698171Y-93483958D02*
X176936266Y-93483958D01*
X176936266Y-93483958D02*
X177126742Y-93436339D01*
X177126742Y-93436339D02*
X177221980Y-93388720D01*
X177221980Y-93388720D02*
X177269600Y-93341101D01*
X177269600Y-93341101D02*
X177317219Y-93245863D01*
X177317219Y-93245863D02*
X177317219Y-93150625D01*
X177317219Y-93150625D02*
X177269600Y-93055387D01*
X177269600Y-93055387D02*
X177221980Y-93007768D01*
X177221980Y-93007768D02*
X177126742Y-92960149D01*
X177126742Y-92960149D02*
X176936266Y-92912530D01*
X176936266Y-92912530D02*
X176698171Y-92912530D01*
X176698171Y-92912530D02*
X176507695Y-92960149D01*
X176507695Y-92960149D02*
X176412457Y-93007768D01*
X176412457Y-93007768D02*
X176364838Y-93055387D01*
X176364838Y-93055387D02*
X176317219Y-93150625D01*
D12*
X175382309Y-82101283D02*
X174882309Y-82101283D01*
X174882309Y-82101283D02*
X174882309Y-82220331D01*
X174882309Y-82220331D02*
X174906119Y-82291759D01*
X174906119Y-82291759D02*
X174953738Y-82339378D01*
X174953738Y-82339378D02*
X175001357Y-82363188D01*
X175001357Y-82363188D02*
X175096595Y-82386997D01*
X175096595Y-82386997D02*
X175168023Y-82386997D01*
X175168023Y-82386997D02*
X175263261Y-82363188D01*
X175263261Y-82363188D02*
X175310880Y-82339378D01*
X175310880Y-82339378D02*
X175358500Y-82291759D01*
X175358500Y-82291759D02*
X175382309Y-82220331D01*
X175382309Y-82220331D02*
X175382309Y-82101283D01*
X175048976Y-82815569D02*
X175382309Y-82815569D01*
X174858500Y-82696521D02*
X175215642Y-82577474D01*
X175215642Y-82577474D02*
X175215642Y-82886997D01*
X174882309Y-83006045D02*
X175382309Y-83172711D01*
X175382309Y-83172711D02*
X174882309Y-83339378D01*
X174929928Y-83482235D02*
X174906119Y-83506044D01*
X174906119Y-83506044D02*
X174882309Y-83553663D01*
X174882309Y-83553663D02*
X174882309Y-83672711D01*
X174882309Y-83672711D02*
X174906119Y-83720330D01*
X174906119Y-83720330D02*
X174929928Y-83744139D01*
X174929928Y-83744139D02*
X174977547Y-83767949D01*
X174977547Y-83767949D02*
X175025166Y-83767949D01*
X175025166Y-83767949D02*
X175096595Y-83744139D01*
X175096595Y-83744139D02*
X175382309Y-83458425D01*
X175382309Y-83458425D02*
X175382309Y-83767949D01*
X175334690Y-84648900D02*
X175358500Y-84625091D01*
X175358500Y-84625091D02*
X175382309Y-84553662D01*
X175382309Y-84553662D02*
X175382309Y-84506043D01*
X175382309Y-84506043D02*
X175358500Y-84434615D01*
X175358500Y-84434615D02*
X175310880Y-84386996D01*
X175310880Y-84386996D02*
X175263261Y-84363186D01*
X175263261Y-84363186D02*
X175168023Y-84339377D01*
X175168023Y-84339377D02*
X175096595Y-84339377D01*
X175096595Y-84339377D02*
X175001357Y-84363186D01*
X175001357Y-84363186D02*
X174953738Y-84386996D01*
X174953738Y-84386996D02*
X174906119Y-84434615D01*
X174906119Y-84434615D02*
X174882309Y-84506043D01*
X174882309Y-84506043D02*
X174882309Y-84553662D01*
X174882309Y-84553662D02*
X174906119Y-84625091D01*
X174906119Y-84625091D02*
X174929928Y-84648900D01*
X175382309Y-84863186D02*
X174882309Y-84863186D01*
X175382309Y-85077472D02*
X175120404Y-85077472D01*
X175120404Y-85077472D02*
X175072785Y-85053662D01*
X175072785Y-85053662D02*
X175048976Y-85006043D01*
X175048976Y-85006043D02*
X175048976Y-84934615D01*
X175048976Y-84934615D02*
X175072785Y-84886996D01*
X175072785Y-84886996D02*
X175096595Y-84863186D01*
X175382309Y-85529853D02*
X175120404Y-85529853D01*
X175120404Y-85529853D02*
X175072785Y-85506043D01*
X175072785Y-85506043D02*
X175048976Y-85458424D01*
X175048976Y-85458424D02*
X175048976Y-85363186D01*
X175048976Y-85363186D02*
X175072785Y-85315567D01*
X175358500Y-85529853D02*
X175382309Y-85482234D01*
X175382309Y-85482234D02*
X175382309Y-85363186D01*
X175382309Y-85363186D02*
X175358500Y-85315567D01*
X175358500Y-85315567D02*
X175310880Y-85291758D01*
X175310880Y-85291758D02*
X175263261Y-85291758D01*
X175263261Y-85291758D02*
X175215642Y-85315567D01*
X175215642Y-85315567D02*
X175191833Y-85363186D01*
X175191833Y-85363186D02*
X175191833Y-85482234D01*
X175191833Y-85482234D02*
X175168023Y-85529853D01*
X175382309Y-85767948D02*
X175048976Y-85767948D01*
X175144214Y-85767948D02*
X175096595Y-85791758D01*
X175096595Y-85791758D02*
X175072785Y-85815567D01*
X175072785Y-85815567D02*
X175048976Y-85863186D01*
X175048976Y-85863186D02*
X175048976Y-85910805D01*
X175048976Y-86291758D02*
X175453738Y-86291758D01*
X175453738Y-86291758D02*
X175501357Y-86267948D01*
X175501357Y-86267948D02*
X175525166Y-86244139D01*
X175525166Y-86244139D02*
X175548976Y-86196520D01*
X175548976Y-86196520D02*
X175548976Y-86125091D01*
X175548976Y-86125091D02*
X175525166Y-86077472D01*
X175358500Y-86291758D02*
X175382309Y-86244139D01*
X175382309Y-86244139D02*
X175382309Y-86148901D01*
X175382309Y-86148901D02*
X175358500Y-86101282D01*
X175358500Y-86101282D02*
X175334690Y-86077472D01*
X175334690Y-86077472D02*
X175287071Y-86053663D01*
X175287071Y-86053663D02*
X175144214Y-86053663D01*
X175144214Y-86053663D02*
X175096595Y-86077472D01*
X175096595Y-86077472D02*
X175072785Y-86101282D01*
X175072785Y-86101282D02*
X175048976Y-86148901D01*
X175048976Y-86148901D02*
X175048976Y-86244139D01*
X175048976Y-86244139D02*
X175072785Y-86291758D01*
X175358500Y-86720329D02*
X175382309Y-86672710D01*
X175382309Y-86672710D02*
X175382309Y-86577472D01*
X175382309Y-86577472D02*
X175358500Y-86529853D01*
X175358500Y-86529853D02*
X175310880Y-86506044D01*
X175310880Y-86506044D02*
X175120404Y-86506044D01*
X175120404Y-86506044D02*
X175072785Y-86529853D01*
X175072785Y-86529853D02*
X175048976Y-86577472D01*
X175048976Y-86577472D02*
X175048976Y-86672710D01*
X175048976Y-86672710D02*
X175072785Y-86720329D01*
X175072785Y-86720329D02*
X175120404Y-86744139D01*
X175120404Y-86744139D02*
X175168023Y-86744139D01*
X175168023Y-86744139D02*
X175215642Y-86506044D01*
X175382309Y-86958424D02*
X175048976Y-86958424D01*
X175144214Y-86958424D02*
X175096595Y-86982234D01*
X175096595Y-86982234D02*
X175072785Y-87006043D01*
X175072785Y-87006043D02*
X175048976Y-87053662D01*
X175048976Y-87053662D02*
X175048976Y-87101281D01*
X175358500Y-87625091D02*
X175382309Y-87696519D01*
X175382309Y-87696519D02*
X175382309Y-87815567D01*
X175382309Y-87815567D02*
X175358500Y-87863186D01*
X175358500Y-87863186D02*
X175334690Y-87886995D01*
X175334690Y-87886995D02*
X175287071Y-87910805D01*
X175287071Y-87910805D02*
X175239452Y-87910805D01*
X175239452Y-87910805D02*
X175191833Y-87886995D01*
X175191833Y-87886995D02*
X175168023Y-87863186D01*
X175168023Y-87863186D02*
X175144214Y-87815567D01*
X175144214Y-87815567D02*
X175120404Y-87720329D01*
X175120404Y-87720329D02*
X175096595Y-87672710D01*
X175096595Y-87672710D02*
X175072785Y-87648900D01*
X175072785Y-87648900D02*
X175025166Y-87625091D01*
X175025166Y-87625091D02*
X174977547Y-87625091D01*
X174977547Y-87625091D02*
X174929928Y-87648900D01*
X174929928Y-87648900D02*
X174906119Y-87672710D01*
X174906119Y-87672710D02*
X174882309Y-87720329D01*
X174882309Y-87720329D02*
X174882309Y-87839376D01*
X174882309Y-87839376D02*
X174906119Y-87910805D01*
X175382309Y-88339376D02*
X175120404Y-88339376D01*
X175120404Y-88339376D02*
X175072785Y-88315566D01*
X175072785Y-88315566D02*
X175048976Y-88267947D01*
X175048976Y-88267947D02*
X175048976Y-88172709D01*
X175048976Y-88172709D02*
X175072785Y-88125090D01*
X175358500Y-88339376D02*
X175382309Y-88291757D01*
X175382309Y-88291757D02*
X175382309Y-88172709D01*
X175382309Y-88172709D02*
X175358500Y-88125090D01*
X175358500Y-88125090D02*
X175310880Y-88101281D01*
X175310880Y-88101281D02*
X175263261Y-88101281D01*
X175263261Y-88101281D02*
X175215642Y-88125090D01*
X175215642Y-88125090D02*
X175191833Y-88172709D01*
X175191833Y-88172709D02*
X175191833Y-88291757D01*
X175191833Y-88291757D02*
X175168023Y-88339376D01*
X175048976Y-88577471D02*
X175382309Y-88577471D01*
X175096595Y-88577471D02*
X175072785Y-88601281D01*
X175072785Y-88601281D02*
X175048976Y-88648900D01*
X175048976Y-88648900D02*
X175048976Y-88720328D01*
X175048976Y-88720328D02*
X175072785Y-88767947D01*
X175072785Y-88767947D02*
X175120404Y-88791757D01*
X175120404Y-88791757D02*
X175382309Y-88791757D01*
X175382309Y-89244138D02*
X174882309Y-89244138D01*
X175358500Y-89244138D02*
X175382309Y-89196519D01*
X175382309Y-89196519D02*
X175382309Y-89101281D01*
X175382309Y-89101281D02*
X175358500Y-89053662D01*
X175358500Y-89053662D02*
X175334690Y-89029852D01*
X175334690Y-89029852D02*
X175287071Y-89006043D01*
X175287071Y-89006043D02*
X175144214Y-89006043D01*
X175144214Y-89006043D02*
X175096595Y-89029852D01*
X175096595Y-89029852D02*
X175072785Y-89053662D01*
X175072785Y-89053662D02*
X175048976Y-89101281D01*
X175048976Y-89101281D02*
X175048976Y-89196519D01*
X175048976Y-89196519D02*
X175072785Y-89244138D01*
X175048976Y-89434614D02*
X175382309Y-89529852D01*
X175382309Y-89529852D02*
X175144214Y-89625090D01*
X175144214Y-89625090D02*
X175382309Y-89720328D01*
X175382309Y-89720328D02*
X175048976Y-89815566D01*
X175382309Y-90006043D02*
X175048976Y-90006043D01*
X174882309Y-90006043D02*
X174906119Y-89982234D01*
X174906119Y-89982234D02*
X174929928Y-90006043D01*
X174929928Y-90006043D02*
X174906119Y-90029853D01*
X174906119Y-90029853D02*
X174882309Y-90006043D01*
X174882309Y-90006043D02*
X174929928Y-90006043D01*
X175358500Y-90458424D02*
X175382309Y-90410805D01*
X175382309Y-90410805D02*
X175382309Y-90315567D01*
X175382309Y-90315567D02*
X175358500Y-90267948D01*
X175358500Y-90267948D02*
X175334690Y-90244138D01*
X175334690Y-90244138D02*
X175287071Y-90220329D01*
X175287071Y-90220329D02*
X175144214Y-90220329D01*
X175144214Y-90220329D02*
X175096595Y-90244138D01*
X175096595Y-90244138D02*
X175072785Y-90267948D01*
X175072785Y-90267948D02*
X175048976Y-90315567D01*
X175048976Y-90315567D02*
X175048976Y-90410805D01*
X175048976Y-90410805D02*
X175072785Y-90458424D01*
X175382309Y-90672709D02*
X174882309Y-90672709D01*
X175382309Y-90886995D02*
X175120404Y-90886995D01*
X175120404Y-90886995D02*
X175072785Y-90863185D01*
X175072785Y-90863185D02*
X175048976Y-90815566D01*
X175048976Y-90815566D02*
X175048976Y-90744138D01*
X175048976Y-90744138D02*
X175072785Y-90696519D01*
X175072785Y-90696519D02*
X175096595Y-90672709D01*
X175382309Y-91506042D02*
X174882309Y-91506042D01*
X175072785Y-91506042D02*
X175048976Y-91553661D01*
X175048976Y-91553661D02*
X175048976Y-91648899D01*
X175048976Y-91648899D02*
X175072785Y-91696518D01*
X175072785Y-91696518D02*
X175096595Y-91720328D01*
X175096595Y-91720328D02*
X175144214Y-91744137D01*
X175144214Y-91744137D02*
X175287071Y-91744137D01*
X175287071Y-91744137D02*
X175334690Y-91720328D01*
X175334690Y-91720328D02*
X175358500Y-91696518D01*
X175358500Y-91696518D02*
X175382309Y-91648899D01*
X175382309Y-91648899D02*
X175382309Y-91553661D01*
X175382309Y-91553661D02*
X175358500Y-91506042D01*
X175382309Y-92029852D02*
X175358500Y-91982233D01*
X175358500Y-91982233D02*
X175334690Y-91958423D01*
X175334690Y-91958423D02*
X175287071Y-91934614D01*
X175287071Y-91934614D02*
X175144214Y-91934614D01*
X175144214Y-91934614D02*
X175096595Y-91958423D01*
X175096595Y-91958423D02*
X175072785Y-91982233D01*
X175072785Y-91982233D02*
X175048976Y-92029852D01*
X175048976Y-92029852D02*
X175048976Y-92101280D01*
X175048976Y-92101280D02*
X175072785Y-92148899D01*
X175072785Y-92148899D02*
X175096595Y-92172709D01*
X175096595Y-92172709D02*
X175144214Y-92196518D01*
X175144214Y-92196518D02*
X175287071Y-92196518D01*
X175287071Y-92196518D02*
X175334690Y-92172709D01*
X175334690Y-92172709D02*
X175358500Y-92148899D01*
X175358500Y-92148899D02*
X175382309Y-92101280D01*
X175382309Y-92101280D02*
X175382309Y-92029852D01*
X175382309Y-92625090D02*
X175120404Y-92625090D01*
X175120404Y-92625090D02*
X175072785Y-92601280D01*
X175072785Y-92601280D02*
X175048976Y-92553661D01*
X175048976Y-92553661D02*
X175048976Y-92458423D01*
X175048976Y-92458423D02*
X175072785Y-92410804D01*
X175358500Y-92625090D02*
X175382309Y-92577471D01*
X175382309Y-92577471D02*
X175382309Y-92458423D01*
X175382309Y-92458423D02*
X175358500Y-92410804D01*
X175358500Y-92410804D02*
X175310880Y-92386995D01*
X175310880Y-92386995D02*
X175263261Y-92386995D01*
X175263261Y-92386995D02*
X175215642Y-92410804D01*
X175215642Y-92410804D02*
X175191833Y-92458423D01*
X175191833Y-92458423D02*
X175191833Y-92577471D01*
X175191833Y-92577471D02*
X175168023Y-92625090D01*
X175382309Y-92863185D02*
X175048976Y-92863185D01*
X175144214Y-92863185D02*
X175096595Y-92886995D01*
X175096595Y-92886995D02*
X175072785Y-92910804D01*
X175072785Y-92910804D02*
X175048976Y-92958423D01*
X175048976Y-92958423D02*
X175048976Y-93006042D01*
X175382309Y-93386995D02*
X174882309Y-93386995D01*
X175358500Y-93386995D02*
X175382309Y-93339376D01*
X175382309Y-93339376D02*
X175382309Y-93244138D01*
X175382309Y-93244138D02*
X175358500Y-93196519D01*
X175358500Y-93196519D02*
X175334690Y-93172709D01*
X175334690Y-93172709D02*
X175287071Y-93148900D01*
X175287071Y-93148900D02*
X175144214Y-93148900D01*
X175144214Y-93148900D02*
X175096595Y-93172709D01*
X175096595Y-93172709D02*
X175072785Y-93196519D01*
X175072785Y-93196519D02*
X175048976Y-93244138D01*
X175048976Y-93244138D02*
X175048976Y-93339376D01*
X175048976Y-93339376D02*
X175072785Y-93386995D01*
M02*
