%TF.GenerationSoftware,KiCad,Pcbnew,9.0.2+dfsg-1*%
%TF.CreationDate,2026-07-31T23:57:36+02:00*%
%TF.ProjectId,D4v2Charger,44347632-4368-4617-9267-65722e6b6963,rev?*%
%TF.SameCoordinates,Original*%
%TF.FileFunction,Legend,Top*%
%TF.FilePolarity,Positive*%
%FSLAX46Y46*%
G04 Gerber Fmt 4.6, Leading zero omitted, Abs format (unit mm)*
G04 Created by KiCad (PCBNEW 9.0.2+dfsg-1) date 2026-07-31 23:57:36*
%MOMM*%
%LPD*%
G01*
G04 APERTURE LIST*
%ADD10C,0.100000*%
%ADD11C,0.150000*%
%ADD12C,0.120000*%
%ADD13C,0.127000*%
%ADD14C,0.200000*%
G04 APERTURE END LIST*
D10*
X171069047Y-81626109D02*
X171069047Y-82030871D01*
X171069047Y-82030871D02*
X171092857Y-82078490D01*
X171092857Y-82078490D02*
X171116666Y-82102300D01*
X171116666Y-82102300D02*
X171164285Y-82126109D01*
X171164285Y-82126109D02*
X171259523Y-82126109D01*
X171259523Y-82126109D02*
X171307142Y-82102300D01*
X171307142Y-82102300D02*
X171330952Y-82078490D01*
X171330952Y-82078490D02*
X171354761Y-82030871D01*
X171354761Y-82030871D02*
X171354761Y-81626109D01*
X171854762Y-82126109D02*
X171569048Y-82126109D01*
X171711905Y-82126109D02*
X171711905Y-81626109D01*
X171711905Y-81626109D02*
X171664286Y-81697538D01*
X171664286Y-81697538D02*
X171616667Y-81745157D01*
X171616667Y-81745157D02*
X171569048Y-81768966D01*
X165326109Y-93079047D02*
X164826109Y-93079047D01*
X164826109Y-93079047D02*
X164826109Y-92959999D01*
X164826109Y-92959999D02*
X164849919Y-92888571D01*
X164849919Y-92888571D02*
X164897538Y-92840952D01*
X164897538Y-92840952D02*
X164945157Y-92817142D01*
X164945157Y-92817142D02*
X165040395Y-92793333D01*
X165040395Y-92793333D02*
X165111823Y-92793333D01*
X165111823Y-92793333D02*
X165207061Y-92817142D01*
X165207061Y-92817142D02*
X165254680Y-92840952D01*
X165254680Y-92840952D02*
X165302300Y-92888571D01*
X165302300Y-92888571D02*
X165326109Y-92959999D01*
X165326109Y-92959999D02*
X165326109Y-93079047D01*
X164826109Y-92626666D02*
X164826109Y-92317142D01*
X164826109Y-92317142D02*
X165016585Y-92483809D01*
X165016585Y-92483809D02*
X165016585Y-92412380D01*
X165016585Y-92412380D02*
X165040395Y-92364761D01*
X165040395Y-92364761D02*
X165064204Y-92340952D01*
X165064204Y-92340952D02*
X165111823Y-92317142D01*
X165111823Y-92317142D02*
X165230871Y-92317142D01*
X165230871Y-92317142D02*
X165278490Y-92340952D01*
X165278490Y-92340952D02*
X165302300Y-92364761D01*
X165302300Y-92364761D02*
X165326109Y-92412380D01*
X165326109Y-92412380D02*
X165326109Y-92555237D01*
X165326109Y-92555237D02*
X165302300Y-92602856D01*
X165302300Y-92602856D02*
X165278490Y-92626666D01*
X163365952Y-89253109D02*
X163365952Y-88753109D01*
X163365952Y-88753109D02*
X163485000Y-88753109D01*
X163485000Y-88753109D02*
X163556428Y-88776919D01*
X163556428Y-88776919D02*
X163604047Y-88824538D01*
X163604047Y-88824538D02*
X163627857Y-88872157D01*
X163627857Y-88872157D02*
X163651666Y-88967395D01*
X163651666Y-88967395D02*
X163651666Y-89038823D01*
X163651666Y-89038823D02*
X163627857Y-89134061D01*
X163627857Y-89134061D02*
X163604047Y-89181680D01*
X163604047Y-89181680D02*
X163556428Y-89229300D01*
X163556428Y-89229300D02*
X163485000Y-89253109D01*
X163485000Y-89253109D02*
X163365952Y-89253109D01*
X164127857Y-89253109D02*
X163842143Y-89253109D01*
X163985000Y-89253109D02*
X163985000Y-88753109D01*
X163985000Y-88753109D02*
X163937381Y-88824538D01*
X163937381Y-88824538D02*
X163889762Y-88872157D01*
X163889762Y-88872157D02*
X163842143Y-88895966D01*
X166846666Y-82728490D02*
X166822857Y-82752300D01*
X166822857Y-82752300D02*
X166751428Y-82776109D01*
X166751428Y-82776109D02*
X166703809Y-82776109D01*
X166703809Y-82776109D02*
X166632381Y-82752300D01*
X166632381Y-82752300D02*
X166584762Y-82704680D01*
X166584762Y-82704680D02*
X166560952Y-82657061D01*
X166560952Y-82657061D02*
X166537143Y-82561823D01*
X166537143Y-82561823D02*
X166537143Y-82490395D01*
X166537143Y-82490395D02*
X166560952Y-82395157D01*
X166560952Y-82395157D02*
X166584762Y-82347538D01*
X166584762Y-82347538D02*
X166632381Y-82299919D01*
X166632381Y-82299919D02*
X166703809Y-82276109D01*
X166703809Y-82276109D02*
X166751428Y-82276109D01*
X166751428Y-82276109D02*
X166822857Y-82299919D01*
X166822857Y-82299919D02*
X166846666Y-82323728D01*
X167037143Y-82323728D02*
X167060952Y-82299919D01*
X167060952Y-82299919D02*
X167108571Y-82276109D01*
X167108571Y-82276109D02*
X167227619Y-82276109D01*
X167227619Y-82276109D02*
X167275238Y-82299919D01*
X167275238Y-82299919D02*
X167299047Y-82323728D01*
X167299047Y-82323728D02*
X167322857Y-82371347D01*
X167322857Y-82371347D02*
X167322857Y-82418966D01*
X167322857Y-82418966D02*
X167299047Y-82490395D01*
X167299047Y-82490395D02*
X167013333Y-82776109D01*
X167013333Y-82776109D02*
X167322857Y-82776109D01*
X174595064Y-82535712D02*
X174571255Y-82559522D01*
X174571255Y-82559522D02*
X174499826Y-82583331D01*
X174499826Y-82583331D02*
X174452207Y-82583331D01*
X174452207Y-82583331D02*
X174380779Y-82559522D01*
X174380779Y-82559522D02*
X174333160Y-82511902D01*
X174333160Y-82511902D02*
X174309350Y-82464283D01*
X174309350Y-82464283D02*
X174285541Y-82369045D01*
X174285541Y-82369045D02*
X174285541Y-82297617D01*
X174285541Y-82297617D02*
X174309350Y-82202379D01*
X174309350Y-82202379D02*
X174333160Y-82154760D01*
X174333160Y-82154760D02*
X174380779Y-82107141D01*
X174380779Y-82107141D02*
X174452207Y-82083331D01*
X174452207Y-82083331D02*
X174499826Y-82083331D01*
X174499826Y-82083331D02*
X174571255Y-82107141D01*
X174571255Y-82107141D02*
X174595064Y-82130950D01*
X175071255Y-82583331D02*
X174785541Y-82583331D01*
X174928398Y-82583331D02*
X174928398Y-82083331D01*
X174928398Y-82083331D02*
X174880779Y-82154760D01*
X174880779Y-82154760D02*
X174833160Y-82202379D01*
X174833160Y-82202379D02*
X174785541Y-82226188D01*
X178795952Y-91158109D02*
X178795952Y-90658109D01*
X178795952Y-90658109D02*
X178915000Y-90658109D01*
X178915000Y-90658109D02*
X178986428Y-90681919D01*
X178986428Y-90681919D02*
X179034047Y-90729538D01*
X179034047Y-90729538D02*
X179057857Y-90777157D01*
X179057857Y-90777157D02*
X179081666Y-90872395D01*
X179081666Y-90872395D02*
X179081666Y-90943823D01*
X179081666Y-90943823D02*
X179057857Y-91039061D01*
X179057857Y-91039061D02*
X179034047Y-91086680D01*
X179034047Y-91086680D02*
X178986428Y-91134300D01*
X178986428Y-91134300D02*
X178915000Y-91158109D01*
X178915000Y-91158109D02*
X178795952Y-91158109D01*
X179272143Y-90705728D02*
X179295952Y-90681919D01*
X179295952Y-90681919D02*
X179343571Y-90658109D01*
X179343571Y-90658109D02*
X179462619Y-90658109D01*
X179462619Y-90658109D02*
X179510238Y-90681919D01*
X179510238Y-90681919D02*
X179534047Y-90705728D01*
X179534047Y-90705728D02*
X179557857Y-90753347D01*
X179557857Y-90753347D02*
X179557857Y-90800966D01*
X179557857Y-90800966D02*
X179534047Y-90872395D01*
X179534047Y-90872395D02*
X179248333Y-91158109D01*
X179248333Y-91158109D02*
X179557857Y-91158109D01*
X178708666Y-89669982D02*
X178542000Y-89431887D01*
X178422952Y-89669982D02*
X178422952Y-89169982D01*
X178422952Y-89169982D02*
X178613428Y-89169982D01*
X178613428Y-89169982D02*
X178661047Y-89193792D01*
X178661047Y-89193792D02*
X178684857Y-89217601D01*
X178684857Y-89217601D02*
X178708666Y-89265220D01*
X178708666Y-89265220D02*
X178708666Y-89336649D01*
X178708666Y-89336649D02*
X178684857Y-89384268D01*
X178684857Y-89384268D02*
X178661047Y-89408077D01*
X178661047Y-89408077D02*
X178613428Y-89431887D01*
X178613428Y-89431887D02*
X178422952Y-89431887D01*
X179137238Y-89336649D02*
X179137238Y-89669982D01*
X179018190Y-89146173D02*
X178899143Y-89503315D01*
X178899143Y-89503315D02*
X179208666Y-89503315D01*
X165802666Y-85062109D02*
X165636000Y-84824014D01*
X165516952Y-85062109D02*
X165516952Y-84562109D01*
X165516952Y-84562109D02*
X165707428Y-84562109D01*
X165707428Y-84562109D02*
X165755047Y-84585919D01*
X165755047Y-84585919D02*
X165778857Y-84609728D01*
X165778857Y-84609728D02*
X165802666Y-84657347D01*
X165802666Y-84657347D02*
X165802666Y-84728776D01*
X165802666Y-84728776D02*
X165778857Y-84776395D01*
X165778857Y-84776395D02*
X165755047Y-84800204D01*
X165755047Y-84800204D02*
X165707428Y-84824014D01*
X165707428Y-84824014D02*
X165516952Y-84824014D01*
X166255047Y-84562109D02*
X166016952Y-84562109D01*
X166016952Y-84562109D02*
X165993143Y-84800204D01*
X165993143Y-84800204D02*
X166016952Y-84776395D01*
X166016952Y-84776395D02*
X166064571Y-84752585D01*
X166064571Y-84752585D02*
X166183619Y-84752585D01*
X166183619Y-84752585D02*
X166231238Y-84776395D01*
X166231238Y-84776395D02*
X166255047Y-84800204D01*
X166255047Y-84800204D02*
X166278857Y-84847823D01*
X166278857Y-84847823D02*
X166278857Y-84966871D01*
X166278857Y-84966871D02*
X166255047Y-85014490D01*
X166255047Y-85014490D02*
X166231238Y-85038300D01*
X166231238Y-85038300D02*
X166183619Y-85062109D01*
X166183619Y-85062109D02*
X166064571Y-85062109D01*
X166064571Y-85062109D02*
X166016952Y-85038300D01*
X166016952Y-85038300D02*
X165993143Y-85014490D01*
X176366666Y-85626109D02*
X176200000Y-85388014D01*
X176080952Y-85626109D02*
X176080952Y-85126109D01*
X176080952Y-85126109D02*
X176271428Y-85126109D01*
X176271428Y-85126109D02*
X176319047Y-85149919D01*
X176319047Y-85149919D02*
X176342857Y-85173728D01*
X176342857Y-85173728D02*
X176366666Y-85221347D01*
X176366666Y-85221347D02*
X176366666Y-85292776D01*
X176366666Y-85292776D02*
X176342857Y-85340395D01*
X176342857Y-85340395D02*
X176319047Y-85364204D01*
X176319047Y-85364204D02*
X176271428Y-85388014D01*
X176271428Y-85388014D02*
X176080952Y-85388014D01*
X176795238Y-85126109D02*
X176700000Y-85126109D01*
X176700000Y-85126109D02*
X176652381Y-85149919D01*
X176652381Y-85149919D02*
X176628571Y-85173728D01*
X176628571Y-85173728D02*
X176580952Y-85245157D01*
X176580952Y-85245157D02*
X176557143Y-85340395D01*
X176557143Y-85340395D02*
X176557143Y-85530871D01*
X176557143Y-85530871D02*
X176580952Y-85578490D01*
X176580952Y-85578490D02*
X176604762Y-85602300D01*
X176604762Y-85602300D02*
X176652381Y-85626109D01*
X176652381Y-85626109D02*
X176747619Y-85626109D01*
X176747619Y-85626109D02*
X176795238Y-85602300D01*
X176795238Y-85602300D02*
X176819047Y-85578490D01*
X176819047Y-85578490D02*
X176842857Y-85530871D01*
X176842857Y-85530871D02*
X176842857Y-85411823D01*
X176842857Y-85411823D02*
X176819047Y-85364204D01*
X176819047Y-85364204D02*
X176795238Y-85340395D01*
X176795238Y-85340395D02*
X176747619Y-85316585D01*
X176747619Y-85316585D02*
X176652381Y-85316585D01*
X176652381Y-85316585D02*
X176604762Y-85340395D01*
X176604762Y-85340395D02*
X176580952Y-85364204D01*
X176580952Y-85364204D02*
X176557143Y-85411823D01*
X176366666Y-84626109D02*
X176200000Y-84388014D01*
X176080952Y-84626109D02*
X176080952Y-84126109D01*
X176080952Y-84126109D02*
X176271428Y-84126109D01*
X176271428Y-84126109D02*
X176319047Y-84149919D01*
X176319047Y-84149919D02*
X176342857Y-84173728D01*
X176342857Y-84173728D02*
X176366666Y-84221347D01*
X176366666Y-84221347D02*
X176366666Y-84292776D01*
X176366666Y-84292776D02*
X176342857Y-84340395D01*
X176342857Y-84340395D02*
X176319047Y-84364204D01*
X176319047Y-84364204D02*
X176271428Y-84388014D01*
X176271428Y-84388014D02*
X176080952Y-84388014D01*
X176533333Y-84126109D02*
X176866666Y-84126109D01*
X176866666Y-84126109D02*
X176652381Y-84626109D01*
X167858204Y-92646665D02*
X167858204Y-92813332D01*
X168120109Y-92813332D02*
X167620109Y-92813332D01*
X167620109Y-92813332D02*
X167620109Y-92575237D01*
X168120109Y-92122856D02*
X168120109Y-92408570D01*
X168120109Y-92265713D02*
X167620109Y-92265713D01*
X167620109Y-92265713D02*
X167691538Y-92313332D01*
X167691538Y-92313332D02*
X167739157Y-92360951D01*
X167739157Y-92360951D02*
X167762966Y-92408570D01*
X164437109Y-90761333D02*
X164199014Y-90927999D01*
X164437109Y-91047047D02*
X163937109Y-91047047D01*
X163937109Y-91047047D02*
X163937109Y-90856571D01*
X163937109Y-90856571D02*
X163960919Y-90808952D01*
X163960919Y-90808952D02*
X163984728Y-90785142D01*
X163984728Y-90785142D02*
X164032347Y-90761333D01*
X164032347Y-90761333D02*
X164103776Y-90761333D01*
X164103776Y-90761333D02*
X164151395Y-90785142D01*
X164151395Y-90785142D02*
X164175204Y-90808952D01*
X164175204Y-90808952D02*
X164199014Y-90856571D01*
X164199014Y-90856571D02*
X164199014Y-91047047D01*
X163937109Y-90594666D02*
X163937109Y-90285142D01*
X163937109Y-90285142D02*
X164127585Y-90451809D01*
X164127585Y-90451809D02*
X164127585Y-90380380D01*
X164127585Y-90380380D02*
X164151395Y-90332761D01*
X164151395Y-90332761D02*
X164175204Y-90308952D01*
X164175204Y-90308952D02*
X164222823Y-90285142D01*
X164222823Y-90285142D02*
X164341871Y-90285142D01*
X164341871Y-90285142D02*
X164389490Y-90308952D01*
X164389490Y-90308952D02*
X164413300Y-90332761D01*
X164413300Y-90332761D02*
X164437109Y-90380380D01*
X164437109Y-90380380D02*
X164437109Y-90523237D01*
X164437109Y-90523237D02*
X164413300Y-90570856D01*
X164413300Y-90570856D02*
X164389490Y-90594666D01*
D11*
X174909916Y-95981069D02*
X174909916Y-96695354D01*
X174909916Y-96695354D02*
X174862297Y-96838211D01*
X174862297Y-96838211D02*
X174767059Y-96933450D01*
X174767059Y-96933450D02*
X174624202Y-96981069D01*
X174624202Y-96981069D02*
X174528964Y-96981069D01*
X175909916Y-96981069D02*
X175338488Y-96981069D01*
X175624202Y-96981069D02*
X175624202Y-95981069D01*
X175624202Y-95981069D02*
X175528964Y-96123926D01*
X175528964Y-96123926D02*
X175433726Y-96219164D01*
X175433726Y-96219164D02*
X175338488Y-96266783D01*
D10*
X166310666Y-83744490D02*
X166286857Y-83768300D01*
X166286857Y-83768300D02*
X166215428Y-83792109D01*
X166215428Y-83792109D02*
X166167809Y-83792109D01*
X166167809Y-83792109D02*
X166096381Y-83768300D01*
X166096381Y-83768300D02*
X166048762Y-83720680D01*
X166048762Y-83720680D02*
X166024952Y-83673061D01*
X166024952Y-83673061D02*
X166001143Y-83577823D01*
X166001143Y-83577823D02*
X166001143Y-83506395D01*
X166001143Y-83506395D02*
X166024952Y-83411157D01*
X166024952Y-83411157D02*
X166048762Y-83363538D01*
X166048762Y-83363538D02*
X166096381Y-83315919D01*
X166096381Y-83315919D02*
X166167809Y-83292109D01*
X166167809Y-83292109D02*
X166215428Y-83292109D01*
X166215428Y-83292109D02*
X166286857Y-83315919D01*
X166286857Y-83315919D02*
X166310666Y-83339728D01*
X166477333Y-83292109D02*
X166786857Y-83292109D01*
X166786857Y-83292109D02*
X166620190Y-83482585D01*
X166620190Y-83482585D02*
X166691619Y-83482585D01*
X166691619Y-83482585D02*
X166739238Y-83506395D01*
X166739238Y-83506395D02*
X166763047Y-83530204D01*
X166763047Y-83530204D02*
X166786857Y-83577823D01*
X166786857Y-83577823D02*
X166786857Y-83696871D01*
X166786857Y-83696871D02*
X166763047Y-83744490D01*
X166763047Y-83744490D02*
X166739238Y-83768300D01*
X166739238Y-83768300D02*
X166691619Y-83792109D01*
X166691619Y-83792109D02*
X166548762Y-83792109D01*
X166548762Y-83792109D02*
X166501143Y-83768300D01*
X166501143Y-83768300D02*
X166477333Y-83744490D01*
X176207143Y-86126109D02*
X176492857Y-86126109D01*
X176350000Y-86626109D02*
X176350000Y-86126109D01*
X176659523Y-86626109D02*
X176659523Y-86126109D01*
X176659523Y-86364204D02*
X176945237Y-86364204D01*
X176945237Y-86626109D02*
X176945237Y-86126109D01*
X177445238Y-86626109D02*
X177159524Y-86626109D01*
X177302381Y-86626109D02*
X177302381Y-86126109D01*
X177302381Y-86126109D02*
X177254762Y-86197538D01*
X177254762Y-86197538D02*
X177207143Y-86245157D01*
X177207143Y-86245157D02*
X177159524Y-86268966D01*
D12*
%TO.C,U1*%
X170350000Y-82240000D02*
X172550000Y-82240000D01*
X170350000Y-84560000D02*
X172550000Y-84560000D01*
X169800000Y-82330000D02*
X169520000Y-82330000D01*
X169800000Y-82050000D01*
X169800000Y-82330000D01*
G36*
X169800000Y-82330000D02*
G01*
X169520000Y-82330000D01*
X169800000Y-82050000D01*
X169800000Y-82330000D01*
G37*
D13*
%TO.C,D3*%
X165745000Y-93179000D02*
X165745000Y-91479000D01*
X166995000Y-91479000D02*
X166995000Y-93179000D01*
D14*
X166470000Y-90329000D02*
G75*
G02*
X166270000Y-90329000I-100000J0D01*
G01*
X166270000Y-90329000D02*
G75*
G02*
X166470000Y-90329000I100000J0D01*
G01*
D12*
%TO.C,D1*%
X164250000Y-88292000D02*
X164250000Y-89762000D01*
X164250000Y-89762000D02*
X166535000Y-89762000D01*
X166535000Y-88292000D02*
X164250000Y-88292000D01*
%TO.C,C2*%
X168322164Y-82190000D02*
X168537836Y-82190000D01*
X168322164Y-82910000D02*
X168537836Y-82910000D01*
%TO.C,C1*%
X175070562Y-82961349D02*
X175286234Y-82961349D01*
X175070562Y-83681349D02*
X175286234Y-83681349D01*
%TO.C,D2*%
X176365000Y-91667000D02*
X178650000Y-91667000D01*
X178650000Y-90197000D02*
X176365000Y-90197000D01*
X178650000Y-91667000D02*
X178650000Y-90197000D01*
%TO.C,R4*%
X177138359Y-89028000D02*
X177445641Y-89028000D01*
X177138359Y-89788000D02*
X177445641Y-89788000D01*
%TO.C,R5*%
X167539641Y-84456000D02*
X167232359Y-84456000D01*
X167539641Y-85216000D02*
X167232359Y-85216000D01*
%TO.C,R6*%
X174796359Y-85020000D02*
X175103641Y-85020000D01*
X174796359Y-85780000D02*
X175103641Y-85780000D01*
%TO.C,R7*%
X174796359Y-84020000D02*
X175103641Y-84020000D01*
X174796359Y-84780000D02*
X175103641Y-84780000D01*
%TO.C,R3*%
X164593000Y-90831641D02*
X164593000Y-90524359D01*
X165353000Y-90831641D02*
X165353000Y-90524359D01*
%TO.C,J1*%
X168922000Y-98535000D02*
X168922000Y-97155000D01*
X170302000Y-98535000D02*
X168922000Y-98535000D01*
X171572000Y-95775000D02*
X174222000Y-95775000D01*
X171572000Y-98535000D02*
X171572000Y-95775000D01*
X171572000Y-98535000D02*
X174222000Y-98535000D01*
X174222000Y-98535000D02*
X174222000Y-95775000D01*
%TO.C,C3*%
X168001836Y-83206000D02*
X167786164Y-83206000D01*
X168001836Y-83926000D02*
X167786164Y-83926000D01*
%TD*%
M02*
